<svg width="423" height="231" viewBox="0 150 823 450" xmlns="http://www.w3.org/2000/svg" name="mapDark" class="svg-icon footer__main__map" style="fill:undefined;">
        <defs><linearGradient x1="50%" y1="0%" x2="50%" y2="100%" id="map-dark2_svg__a"><stop stop-color="#171717" offset="0%"></stop><stop stop-color="#282828" offset="8.871%"></stop><stop stop-color="#2D2D2D" offset="87.082%"></stop><stop stop-color="#3F3F3F" stop-opacity="0" offset="100%"></stop></linearGradient></defs><g transform="translate(0 1)" fill="none" fill-rule="evenodd"><path stroke="url(#map-dark2_svg__a)" opacity=".4" stroke-linecap="round" stroke-linejoin="round" d="M111 627.279l1.105-1.168 1.015-1.379 1.496-1.39 1.44-.456 3.358-.078 1.25-.534.67-1.134-.302-.845-.837-.545-.96-.256 3.65-4.181 1.763-.412 1.908.256 1.74.556 3.628-.6 1.673-.667 1.407-1.557.401-1.057.603-2.635.524-1.201 2.154-1.858.28-.344 1.427.044 3.37.679 6.294.033 4.364.89.792-.278.77-1.924.87-.523 6.495-1.312 17.766.767.625-.133 2.198-2.814.29-.723.067-1.078-.123-3.036-.212-.634-.39-.256-.636-.634-.558-.745-.257-.634-.156-.934 1.227-.49 1.864-1.556.67-.411 1.126-.5.19-.034-.234.522-.212 1.224-.257.9-.502.679-.257.8.424 1.268.77.667.837-.11 1.73-.902 1.685-.244 4.464.945 1.305-.222 3.047-1.157 1.26.245.358.667.826 2.435.413.935.625.733 2.298 1.846 1.094.534 1.596.045 1.618-.312 1.216-.533.737-.668 2.7-2.402 1.473-.734 2.757-.667h2.756l4.34 1.123 1.329-.178-.792 1.991 1.205 1.49 2.008 1.323 1.54 1.48-2.12 1.045-.937 2.635.401 2.803 1.92 1.534 1.194.212.725.255.659.523 3.526 3.881 3.783 2.847.848.345.658-.223.637-.355.803-.023.748.4.435.457.48.289.826-.034.535-.467 2.21-2.602-.023-.956-.2-.69-.257-.59-.168-.61-.066-.712v-1.969l.19-.311.736-1.846.1-.156-.178.056-.067-2.58.212.078 1.25-1.635.044-.312.926-2.257.179-.256.178-1.368.045-1.39-.223-1.456-.603-1.657-1.517-2.58-.949-1.146-.96-.712-1.194-.2-1.964.857-1.16.2-4.308-.79-1.26-1.29 1.439-2.213.011-.01.502-.813.134-.756.022-.734.157-.723.424-.9 4.988-7.974-.357-.356-1.685-2.49-2.612-6.061-1.305-1.28-.625-.333-1.562-1.601-1.853-1.112-.614-.912-.412-1.201-.034-.167-.212-1.235-1.15-2.568-5.445-5.66-.725-1.146-.692-1.38-.38-1.523.145-1.545.48-.823.491-.178.502.033.48-.222 1.094-1.724.312-.378 3.08-2.146 1.005-1.157 1.417-2.213.703-.778 1.172-.612 4.285-.834-.112-.278 1.194-.967 2.5-1.39 2.879-2.747 1.239-.89 8.023-3.17 10.657-1.856 2.59-1.446 7.565-6.584 1.083-1.801.435-2.458.145-.6.357-.6.346-.79.167-1.212-.156-3.27.156-1.067.357-1.068 1.05-2.202.2-1.134-.167-1.012-.714-1.112-.313-2.102-.234-.523-.045-.422.424-.8.692-.635 2.522-.945 2.6-.356 8.013 2.235 1.35.723 1.25.934 1.183 1.802 3.18 1.423.156.19.692-3.103.647-1.324.28.056 1.595-.245.614-.278.647-.634.368-.545 1.328-2.858.48-1.534.234-1.668.056-1.957-.413-3.76.212-1.39 1.027-.978-.96-.467-.401-.345-.815-1.623-.402.144.179-1.1 2.31-4.86-1.507-1.568-3.738-7.418-1.797-2.791-1.093-.59-2.88-.455-1.45-.69-1.328-1.312-1.205-1.824-.815-2.124-.2-2.224-1.407.167-1.317-.723-1.305-1.045-1.362-.834-1.272-.267-.502-.112-1.071.49-.737 1.3-.803 2.025-1.808-.856-2.444-1.746-2.22-2.08-1.105-1.801-.045-3.281-.87-2.035-3.281-3.336-2.355-3.136-.937-.823-1.551-.578-4.687-.223-2.176-1.279-1.24-1.968-1.015-2.313-7.242-9.808-.96-.545-.022-.012v-.01l-2.455-2.914-.357-1.101-.1-1.134-.436-.957-1.35-.556-2.165-2.302-1.127-.9-1.306-.701-2.957-.812-1.06.334.335 1.523-1.44.2-4.553-.667-1.54-.556-1.216-1.268-2.544-5.649-1.551-1.601-3.571-1.68-1.496-1.245-.881-1.713-.39-1.912-.224-3.893-.1-1.99-.58-.467-.815.122-.87-.256-.838-.878-.614-.89-.49-1.056-.492-1.424-.312-1.39-.357-2.624-.536-1.29-.814-.9-1.853-1.013-.792-.945.056-.29.368-.933-.614-.3-.2-.156.658-1.457-.056-1.568-.647-1.268-1.072-.556-2.566-1.234-1.183-.801-1.116-1-1.596-2.292-.803-1.523-.38-1.246.915-1.79 3.192-1.357 1.227-1.234.257-1.957.034-2.503.48-1.679 1.54.478.568-1.846 1.775-3.28.636-1.824.245-2.324-.48-.856-1.115-.423-3.158-1.857.089-1.301.524-1.602-.19-1.746-1.305-1.245-2.846-.29-1.183-1.167h-.078l-11.695-6.238-.256-.757-.011-1.09-.157-1.223-.691-1.19-1.128-.967-1.238-.7-1.094-1.002-.67-1.812-.044-1.79.547-2.736-.235-1.813-.58-1.423-.87-1.335-1.897-2.068-3.817-2.38-.803-1.435.96-1.445.803-.523.524-.556.134-1.546-.279-1.712-.625-1.068-1.785-1.857 1.953.145 3.705.266 1.495 1.057.457 1.112-.033 2.068.301.934.87.757 1.128.344 2.22.056.547.311.257.434-.045.556-.334.667-.123.023-.1.044-.101.067-.1.089-.201.222-.078.245.078.267.2.278 1.35 1.356.336.456.323.79.123.69.09.622.925 3.314.793 1.212 1.317.167 1.07-.778v-1.068l-.446-1.279-.234-1.49.234-2.146.425-1.123 1.517-1.958.223-1.901.625-.946.87-.6.871-.923 2.4-4.337.836-.812 2.266-1.279.915-.823.279-.166.703.033.301-.167.179-.445-.056-.467-.1-.4-.023-.256.212-.545.156-.611.28-.601.568-.49 2.143-1.834 3.113-.912 5.792-.434 4.14.745 1.004-.1.86-.845 1.707-2.635.993-.98 1.261-.455 1.25-.078 1.384.2.469-.189 1.082-.711.703-.156.636.2 7.175 4.337 2.634.156.636-.612 1.674-1.657 1.105-1.29.502-2.202.502-4.926.636-.434.647-.167.648.145.591.445.68.211.715.056.737-.056.691-.2h.012l.022-.011 2.187-.745 4.073.233 1.908-1.412 1.094-2.002 2.589-6.872 1.495.144 1.261.879 1.284.567 1.629-.823.815-2.458.435-.767 2.901-2.046.469-.512.045-.433.212-.156.937.356.413.467 1.093 1.824.514.633 1.718.846 1.44-.356 1.317-1.19 1.339-1.668.77-.445.468-.556.056-.745-.446-.968 1.294-.967 1.027-1.335.312-1.623-.892-1.868 3.158-1.902 3.504-.667 6.952.044 1.484-.289 2.946-1.09 1.663-.167 3.56.39 1.395-.29 2.231-1.39.47-.01.446-.145.535-.768.034-.633-.179-.846-.1-1.034.334-1.19.703-.867.659-.034.748.234.982-.145.78-.589 1.195-1.501.826-.6 1.517-.323 2.823.367 1.485-.1 12.052-5.516.937-.879 1.417-2.135.848-.823 2.779-.567 6.06.467 2.276-1.913.469-3.047-2.076-1.178-2.846-.846-1.975-1.946.067-1.278.659-.445.122-.256-1.54-.634-2.61-.334-.916-.6.87-1.234 1.083-3.515 1.852-1.879 2.467-.39 2.879.935.591.523.402.69.502.666.837.456.86.011 2.153-.945 2.812.145.882-.456.67-1.68.446 1.035.178.734.257.723.725 1 .96.679 2.087.522.948.746.938 1.134.591.967.234 1.19-.145 1.824-.591 1.479-.926 1.746-.424 1.49.892.69 4.263-1.769.937.023.425 1.379-.447 1.623-1.317 3.058-.267 2.18.368.912 2.69.756 1.104.612 2.957 2.246 2.857.634 1.685.067 1.25-.345.759-.856.725-1.413 1.216-3.258.012-2.269 1.104-1.801 2.745-3.047 3.906-9.252 3.448-8.719.235-1.412.01-2.347.135-1.2.424-.857.591-.556.514-.823.167-1.568.09-3.092.613-3.447 1.06-3.27 1.317-2.59-.312-.356-.29-.378.412-3.559-1.127-2.413-1.752-2.057-1.428-2.503-.223-.845-.335-2.213v-.11l-.458-5.216-.29-3.259.647-1.534-.792-1.702-1.428-1.501-1.205-.945-1.764-.834-3.626-1.068-1.764-1v-.012l-1.629-1.168-5.055-1.69-1.707-1.78-.246-1.323-.178-.878.636-2.391 1.495-2.38.915-2.48-.123-3.258-.77-3.147-.993-2.146-3.75-3.114-1.751-2.035-.793-3.159-.3-3.28-1.072-1.424-1.406-.967-1.261-1.935-.235-2.647 1.016-2.146 4.43-4.504 1.417-1.901 1.194-2.247.659-2.435.268-7.618.424-1.212 1.662-3.025.335-1.179.134-1.145.257-1.123.591-1.068 1.417-1.768-5.032-3.759-.77-1.79.48-3.247.825-2.28.301-1.79-1.127-1.746v-.779l1.518-1.98.022-2.58-1.205-2.201-2.165-.945-2.187-.512-2.634-1.345-1.73-1.947.47-2.28-1.63-3.658-1.841-5.493-.435-5.005 4.017-3.525 1.864-2.958 1.283-2.958-.357-1.357-1.44-1.3.603-2.948 2.165-4.537-2.41-1.968-.447-.5-4.486-5.027"></path><path d="M696.777 375.463l-1.116-5.039-.347-1.076-.904-2.064-.357-1.143-.524-4.073-.313-.921-1.172-.855-1.206.2-1.205.521-1.128.1-.97-.588-1.53-1.775-1.005-.822-1.093-.333-2.39-.21-1.026-.71-.491-.889-.77-3.462-1.82-3.729-1.35-3.607-.023-3.185 2.121-2.452-2.065-1.11-.335-1.443.201-1.83-.48-2.165-1.15-.677-3.036 1.931-1.797.011-5.76-3.163-2.991-1.054-3.115.377h.168l.145.067.09.133.089.211-2.155 1.875-1.127.211-1.54-1.243-.425-.799-.535-1.853-.335-.655-.916-.677-1.808-.366-.915-.422-2.445-2.075-1.172-.655-4.945-.932-.993-1.154.502-2.197-4.52-2.941-1.095-.267-1.294-.333.357 2.708.402.178.614-.2.658.022.547.833.145 1.187-.402.522-2.511.743-3.103.089-1.407.366-2.288 2.031-2.813.844-2.802-.6-5.023-4.95-.87-1.187-.614-1.431-.425-1.476-.524-1.321-.86-1.021-.725-.71-.246-.7.257-.654.714-.61.034-.09.011-.088-.011-.111-.034-.111-1.082-.233-2.11-1.043-1.016-.267-.815.189-.658.377-.782.133-1.205-.532-3.762-4.728-.156-.877.558-1.21.848-.42 3.74-.134 2.065-.821 3.293-1.954 1.562-1.353.737-1.82-1.217-2.209-.814-.81-.168-1.199.145-1.098.837-2.242.179-.377.056-.378-.045-.31-.19-.278-1.428-1.909-.425-.4-1.317-.488-.502.322-.19.822-.435.976-2.288 3.152-1.34 1.087-1.786.467-6.92-1.21-3.684.333-2.266 2.73-.402.266-.402.089-.413-.1-.402-.255-.714-2.23-1.685-1.355-1.72.122-.837 2.209-1.027-.788-.547-1.232-.145-1.52.1-1.554-.356-.31-.313-.345-.268-.4-.223-.454 1.418-.577-1.597-.666-3.627.1-1.842-.522-2.724-1.72-.759-.821-.458-1.044-.48-1.553-.267-1.31.167-.333-.904-.266-2.355.488-1.072-.022-.993-.521-1.798-1.51-.837-.51-7.947-2.209-1.797.211-1.139-.688-2.188-1.298-1.763-.233-2.11 1.287.011 1.676 2.478 3.629.882 2.197.58 2.564.76 2.33 1.44 1.487 1.886 1.088 1.406 1.542.815 2.153.123 2.908 1.004 1.332.157 1.587-.503 1.01-.926-.356-.837-1.22-.357-.733-.47-.31-1.127-.023-.212.333.011 1.443-.19.444-.691.055-1.44-.51-.67.022-.927.644-1.294 1.775-.726.644-.86.222-.948.233-1.552-.1-1.54.21-1.73 1.488-1.396 2.098-.837 1.609-.937 1.331-1.72 1.243-2.377 3.23-3.137.222-3.248-1.665-2.668-2.441-1.361-1.776-.726-1.498-.882-4.084-.848-2.264-2.333-2.43-.982-1.765-1.117-1.51-1.975-3.55-1.105-1.565-1.72-1.199-3.437-1.243-1.385-1.82-.2-1.054.066-1.099-.055-1.11-.547-1.12-.737-.234h-3.527l-.904.289-.536.488-.58.122-.983-.799-.368-.699-1.005-3.107-2.511-.433-.726-2.153.603-1.909 1.54.344-.145-.366-.368-1.332.468-.044.715-.455.424-.156 1.183-.998 1.362-.81 1.161-.977.603-1.565 1.216-.388 2.478.677 1.329-.289.725-1.02 1.597-1.555.658-.92-.212.055-.011-.7.111-.932.112-.61.335-.7.212-.332v-.41l-.29-.91 2.433-.988-.703-2.309-6.597-6.936-2.378-1.343-2.511-.632-2.813-.056-1.005.211-.569 1.21-.558 1.542-.949 1.188-1.295.288-1.172-.543-2.444-1.865-3.26-.333-4.81 4.617-3.282.61-.157-.366-.055-.377.067-.4.145-.388 1.116-.899.179-1.443-.425-1.664-.67-1.643-1.015-1.886-1.038-1-1.273-.188-4.587 1.71-2.132.066-.503-.167-3.907-6.625-.245-.733-.168-.832-1.92-.177-6.429 1.542-.815-.255-.57-.555-1.026-1.565-.882-.566-15.47-5.404-3.227.277-.714.888-.737 1.287-.86.9-.133-.045-.95-.3-.501-.999.055-1.154.224-1.22-.023-1.177-.926-2.275-1.172-.965-1.407-.622-1.54-1.22-.826-1.321-.904-2.009-.726-2.142-.234-1.742.536-2.23.68-1.277.079-1.188-1.228-1.986-2.076-1.021-4.41-.067-.714-1.786-.357-1.854-.904-.455-1.005.7-.703 1.598v.01l-.246 1.232-.87.19-1.094-.545-.916-.887-.647-1.199-3.918-.866-1.473-1.342-.212.998-.369.566-1.105.81-.446.1-.436.211-.402.322-.346.41h-.01l.334 1.377 1.25.987 1.172 1.71.09 3.54-.235.61-.77.855-.2.41-.08.688.046.455.089.344.09 4.229-.146 1.054-8.84-.655-2.802.788-1.652-.056-1.217 3.252-.737 1.41-.748.854-1.25.344-1.685-.067-2.858-.632-2.958-2.242-1.105-.61-2.69-.755-.368-.91.268-2.175 1.306-3.052.457-1.62-.424-1.376-.938-.022-4.264 1.764-.893-.688.425-1.487.926-1.742.592-1.476.145-1.82-.235-1.199-.591-.954-.938-1.132-.949-.744-2.087-.522-.96-.676-.726-1-.256-.72-.179-.733-.446-1.032-.67 1.676-.882.455-2.813-.156-2.154.955-.86-.023-.837-.455-.502-.654-.413-.688-.58-.533-2.88-.932-2.467.4-1.853 1.875-1.083 3.507-.87 1.231.903.6 2.624.333 1.54.632-.123.244-.658.444-.067 1.288 1.975 1.93 2.847.855 2.076 1.177-.469 3.04-2.277 1.91-6.072-.478-2.78.577-.837.821-1.418 2.131-.937.877-12.055 5.504-1.496.1-2.813-.366-1.518.322-.826.599-1.195 1.498-.781.588-.982.145-.748-.233-.659.033-.714.865-.324 1.188.1 1.032.18.843-.034.633-.536.766-.447.144-.468.011-2.233 1.387-1.395.289-3.56-.389-1.664.167-2.947 1.088-1.485.288-6.954-.044-3.505.666-3.159 1.897.893 1.865-.312 1.62-1.027 1.332-1.295.965.447.966-.056.743-.469.555-.77.433-1.34 1.676-1.317 1.187-1.44.344-1.719-.832-.513-.633-1.094-1.82-.413-.466-.938-.355-.223.155-.034.433-.468.51-2.903 2.043-.435.765-.815 2.453-1.63.821-1.283-.566-1.273-.876-1.484-.145-2.59 6.848-1.094 2.008-1.909 1.41-4.085-.233-2.177.743-.022.011h-.011l-.692.2-.737.044-.714-.044-.681-.21-.592-.445-.647-.144-.648.166-.636.433-.502 4.917-.502 2.197-1.106 1.287-1.674 1.654-.636.61-2.634-.155-7.178-4.328-.636-.2-.703.155-1.083.71-.469.19-1.384-.2-1.25.077-1.262.455-.993.977-1.708 2.63-.86.832-1.004.111-4.141-.743-5.793.432-3.115.91-2.143 1.832-.57.488-.278.6-.156.61-.213.543.023.256.1.4.056.465-.179.444-.3.167-.704-.034-.28.167-.915.821-2.265 1.276-.849.81-2.389 4.329-.881.92-.86.6-.625.943-.223 1.898-1.53 1.953-.412 1.121-.235 2.142.235 1.476.446 1.287v1.054l-1.072.788-1.317-.166-.792-1.21-.927-3.307-.089-.621-.123-.688-.324-.788-.334-.455-1.351-1.354-.212-.278-.067-.277.067-.233.212-.222.1-.089.1-.067.101-.044.123-.022.335-.677.045-.544-.257-.433-.547-.31-2.221-.056-1.128-.344-.87-.755-.302-.932.034-2.064-.458-1.11-1.496-1.054-3.706-.277-1.953-.134 1.786 1.854.625 1.054.28 1.72-.135 1.532-.524.566-.804.521-.971 1.443.815 1.432 3.817 2.374 1.887 2.065.881 1.331.58 1.42.235 1.799-.547 2.74.045 1.788.67 1.808 1.094 1 1.239.698 1.127.966.692 1.176.156 1.232.011 1.077.257.765 11.687 6.226h.09l1.183 1.165 2.846.289 1.306 1.232.19 1.753-.525 1.598-.09 1.288 3.16 1.853 1.116.433.48.854-.246 2.32-.636 1.82-1.775 3.274-.569 1.842-1.54-.477-.48 1.675-.034 2.497-.256 1.943-1.228 1.242-3.193 1.354-.915 1.787.38 1.243.803 1.52 1.596 2.287 1.117.998 1.183.8 2.567 1.231 1.072.555.647 1.265.056 1.565-.659 1.454.201.155.614.3-.368.932-.056.278.781.954 1.865 1.01.814.899.536 1.276.357 2.63.313 1.387.491 1.42.491 1.044.614.899.837.877.871.255.815-.122.58.466.1 1.987.224 3.884.39 1.909.882 1.709 1.496 1.243 3.572 1.675 1.552 1.598 2.545 5.638 1.216 1.265 1.54.555 4.555.666 1.44-.2-.335-1.52 1.06-.333 2.959.81 1.306.7 1.127.898 2.165 2.297 1.351.555.424.955.112 1.132.346 1.098 2.467 2.908v.01l.022.012.96.544 7.244 9.788 1.016 2.308 1.24 1.965 2.176 1.276 4.688.222 1.552.577.937.81 2.344 3.14 3.282 3.33.882 2.03.033 3.275 1.117 1.798 2.22 2.075 2.445 1.742 1.809.855.792-2.031.748-1.288 1.072-.488.49.111 1.285.255 1.361.844 1.306 1.032 1.318.732 1.406-.166.2 2.208.816 2.131 1.205 1.82 1.329 1.31 1.45.688 2.88.455 1.095.588 1.797 2.785 3.739 7.403 1.507 1.564 3.114.833 1.462.788 1.418 1.098 1.686 1.399 5.201 2.852.692.732 1.284 1.965.491.954.39.366.537.222.468.31.19.711-.134.733-.357.11-.38-.077-.223.166-.524 1.088-.436.166-.145.333.357 1.587.346.622 1.329 1.664.647.566 2.634 1.1 10.95 1.22 7.68 2.708.748-.09.603-.243 1.552-1.243 4.03-1.72 1.216-1.254 1.741-4.573 1.128-.776 1.853 2.175 3.08 1.609.916.21 1.16-.243 2.322-1.121 1.184-.1.502.455.09.732.01.766.246.488.603.067 1.183-.41.502.121.837 1.088.458 1.087.592.755 1.283.089 1.195-1.188.346-.355.402-3.018-.034-3.54.268-3.141 1.462-2.353 4.074-3.562.391-2.22.782-1.365.3-1.41.459-1.109 1.16-.444 4.052.555 3.985 1.631 1.574-.144.882-2.042-.167-.21-.335-.755-.335-.921-.156-.733.134-.799.558-1.476 1.63-7.291.01-3.23-.312-3.584.033-3.307 1.039-2.475-.056-.633v-.532l.111-.411.257-.178 1.686-.221 4.308 1.464 6.017.489.569 1.642.324 1.598-.034 1.587-.513 1.665 1.54.033 5.894-1.587.402-.255 1.071-1.276.257-.61.19-1.577.312-.477.592-.01.39.487.324.578.391.277 3.617.033 1.719.489 3.717 1.886 3.449 1.154 1.652.944 3.829 3.296 1.763.677 4.61 1.786 6.006 3.363 1.74.41h1.776l1.306-.41 2.746-1.443.68-.155 2.367-.011.446.333.313 1.442.38.589.524.222 1.485.11.848.611.57.266.647-.044-.793 1.043.983-.233.87.033.57.533.089 1.22 1.306-.332.402.5v.798l.122.588 7.77 5.627 4.107 1.765 7.144-.422 10.816 1.587.09-.078 1.607-.244 1.027.832.424.134 1.217-.345.848-.787 3.93-6.692 1.339-.888 2.221.322.815-.034 1.395-.588.703-.1.715.244 1.328.833 4.621 1.354 1.43.155 1.473.6.602 1.398.302 1.675.547 1.365 1.015.722 1.24.21 2.935-.11 1.195.4 2.79 1.841 1.429.533 1.473-.189 2.98-1.054 1.273.1 1.83 2.552 1.072 7.691 2.668 3.085.19-2.197 1.228-1.487.882-1.61 3.918-11.208 1.897-3.218 2.657-2.298 1.116-1.398.458-2.197.703-1.088 4.152-3.018 3.472-.722 3.717.966 8.818 4.439 1.35-.244 1.508-.988 1.417-.921 1.842-.544 1.116.544 2.367 2.497 2.835.433 14.857-5.827 1.373-1.11 2.668-4.572 1.25-1.032 1.898-.333 1.63.278 1.484-.078 1.417-1.387.637-1.598.591-3.618.48-1.731 1.027-2.042 1.63-1.032 1.875-.3 4.141.333 2.568-1.176 2.277-2.109 1.607-2.708.514-2.575-.1-5.238-.012-.699.268-3.14.993-3.851 1.44-3.585 1.864-3.007 2.278-2.142 10.414-4.029 2.869-2.23 1.82-1.42.178-5.594 2.255.51 1.741-1.143 3.304-4.006 2.534-1.354.636-.655.39-1.032.202-2.197.402-.966 1.585-1.01 3.426.5 2.2-1.154.535-.111.536.11 2.534 1.266 2.243.688 2.166-.122 3.17-2.908 1.451-.555 3.16-.088.334-1.965z"></path><path fill="#232323" d="M698.775 376.678l-1.122-5.073-.348-1.084-.91-2.078-.359-1.15-.527-4.101-.315-.928-1.179-.86-1.212.201-1.212.525-1.134.1-.977-.591-1.538-1.788-1.01-.827-1.1-.335-2.403-.212-1.033-.715-.494-.894-.774-3.486-1.83-3.754-1.359-3.631-.022-3.207 2.133-2.47-2.077-1.117-.337-1.452.202-1.844-.482-2.178-1.157-.682-3.053 1.944-1.808.011-5.793-3.184-3.008-1.061-3.132.38h.168l.146.067.09.134.09.212-2.167 1.888-1.134.212-1.55-1.251-.426-.804-.539-1.866-.336-.66-.921-.681-1.819-.369-.92-.424-2.459-2.09-1.179-.659-4.973-.938-.999-1.162.505-2.213-4.547-2.96-1.1-.269-1.302-.335.36 2.726.403.18.618-.202.662.022.55.838.146 1.196-.404.525-2.526.749-3.12.089-1.415.369-2.302 2.044-2.829.85-2.818-.604-5.051-4.983-.876-1.196-.617-1.44-.427-1.487-.528-1.33-.864-1.027-.73-.715-.247-.704.258-.66.719-.614.034-.09.01-.089-.01-.112-.034-.111-1.09-.235-2.12-1.05-1.023-.268-.819.19-.662.38-.786.134-1.213-.537-3.783-4.76-.157-.882.561-1.218.853-.425 3.761-.134 2.077-.826 3.312-1.967 1.572-1.363.74-1.832-1.223-2.224-.82-.815-.168-1.207.146-1.106.842-2.257.18-.38.056-.38-.045-.313-.191-.279-1.437-1.922-.427-.402-1.324-.492-.506.324-.19.827-.438.983-2.302 3.174-1.347 1.095-1.796.469-6.96-1.218-3.705.335-2.28 2.749-.403.268-.404.09-.416-.101-.404-.257-.718-2.246-1.696-1.363-1.728.123-.842 2.223-1.033-.793-.55-1.24-.146-1.531.1-1.564-.358-.313-.315-.346-.27-.403-.224-.458 1.426-.58-1.605-.671-3.649.1-1.852-.525-2.74-1.732-.763-.826-.46-1.05-.483-1.565-.27-1.318.169-.335-.91-.269-2.368.492-1.078-.022-.999-.525-1.807-1.52-.842-.514-7.994-2.223-1.807.212-1.145-.693-2.2-1.307-1.774-.235-2.122 1.296.011 1.688 2.492 3.653.887 2.212.584 2.581.764 2.347 1.448 1.497 1.897 1.095 1.414 1.553.82 2.167.123 2.928 1.01 1.34.158 1.598-.505 1.017-.932-.358-.842-1.229-.36-.737-.47-.313-1.135-.022-.213.335.011 1.452-.19.447-.696.056-1.449-.514-.673.023-.932.648-1.302 1.787-.73.648-.864.224-.955.234-1.56-.1-1.55.212-1.74 1.497-1.403 2.112-.842 1.62-.943 1.34-1.729 1.252-2.39 3.252-3.155.223-3.267-1.676-2.683-2.458-1.37-1.788-.73-1.508-.887-4.112-.853-2.279-2.346-2.447-.988-1.776-1.123-1.52-1.987-3.575-1.111-1.576-1.729-1.206-3.458-1.252-1.392-1.832-.202-1.061.067-1.107-.056-1.117-.55-1.128-.74-.235h-3.548l-.91.29-.538.492-.584.123-.988-.804-.37-.704-1.011-3.129-2.526-.436-.73-2.167.607-1.922 1.549.347-.146-.37-.37-1.34.47-.045.72-.458.426-.156 1.19-1.006 1.37-.815 1.167-.984.606-1.575 1.224-.391 2.492.682 1.336-.29.73-1.029 1.605-1.564.663-.927-.214.055-.01-.703.111-.939.113-.614.336-.704.214-.336v-.413l-.292-.916 2.447-.995-.707-2.324-6.635-6.983-2.391-1.352-2.526-.636-2.829-.056-1.01.212-.573 1.218-.561 1.553-.954 1.195-1.303.29-1.178-.547-2.46-1.877-3.277-.335-4.839 4.648-3.3.615-.157-.37-.057-.379.068-.402.146-.391 1.122-.905.18-1.453-.427-1.676-.673-1.653-1.022-1.9-1.044-1.005-1.28-.19-4.614 1.72-2.144.067-.505-.167-3.93-6.67-.246-.738-.169-.838-1.93-.179-6.467 1.554-.82-.257-.572-.56-1.033-1.575-.887-.57-15.56-5.44-3.244.279-.718.894-.741 1.296-.865.905-.135-.045-.954-.302-.505-1.005.056-1.162.225-1.23-.023-1.184-.932-2.29-1.178-.972-1.415-.626-1.55-1.229-.83-1.33-.91-2.022-.729-2.156-.236-1.754.54-2.246.684-1.285.079-1.195-1.235-2-2.088-1.028-4.435-.067-.718-1.8-.36-1.865-.909-.458-1.01.704-.707 1.609v.01l-.247 1.241-.876.19-1.1-.548-.92-.893-.652-1.207-3.94-.872-1.482-1.351-.214 1.005-.37.57-1.112.816-.449.1-.437.212-.405.324-.348.414h-.01l.336 1.385 1.257.995 1.18 1.72.089 3.564-.236.615-.774.86-.203.414-.078.692.045.459.09.346.09 4.257-.147 1.061-8.89-.659-2.819.793-1.661-.056-1.224 3.274-.74 1.42-.753.86-1.257.346-1.695-.067-2.874-.637-2.975-2.257-1.112-.615-2.705-.76-.37-.916.269-2.19 1.313-3.072.46-1.631-.426-1.386-.943-.022-4.289 1.776-.898-.692.427-1.497.932-1.755.595-1.486.146-1.832-.236-1.207-.595-.96-.943-1.14-.954-.749-2.1-.525-.965-.681-.73-1.006-.258-.726-.18-.738-.449-1.039-.673 1.687-.887.458-2.83-.156-2.166.96-.864-.021-.842-.459-.506-.659-.415-.692-.584-.537-2.896-.938-2.481.402-1.864 1.888-1.089 3.53-.875 1.241.909.603 2.638.336 1.55.636-.124.246-.662.447-.068 1.296 1.987 1.944 2.863.86 2.088 1.185-.471 3.061-2.29 1.922-6.108-.48-2.795.58-.842.827-1.426 2.146-.943.882-12.124 5.542-1.505.1-2.829-.368-1.527.324-.83.603-1.201 1.509-.786.592-.988.145-.752-.235-.663.034-.718.871-.326 1.196.101 1.04.18.848-.034.637-.539.771-.449.145-.471.011-2.246 1.397-1.403.29-3.581-.39-1.673.167-2.964 1.095-1.493.29-6.994-.044-3.525.67-3.177 1.91.898 1.878-.314 1.631-1.033 1.34-1.302.973.449.972-.056.749-.472.558-.774.436-1.347 1.687-1.325 1.196-1.448.346-1.73-.838-.516-.637-1.1-1.832-.415-.47-.943-.357-.225.156-.033.436-.472.514-2.919 2.056-.438.77-.82 2.47-1.638.827-1.291-.57-1.28-.883-1.493-.145-2.605 6.894-1.1 2.022-1.92 1.42-4.108-.236-2.19.75-.022.01h-.011l-.696.201-.741.045-.719-.045-.685-.212-.594-.447-.652-.145-.65.168-.64.435-.506 4.95-.505 2.212-1.111 1.296-1.684 1.665-.64.614-2.65-.156-7.218-4.357-.64-.202-.707.157-1.09.715-.47.19-1.393-.201-1.257.078-1.269.458-.999.983-1.718 2.648-.864.838-1.01.112-4.165-.749-5.827.436-3.132.916-2.156 1.844-.572.492-.28.603-.158.614-.213.548.022.257.101.402.056.47-.18.446-.302.168-.708-.034-.28.168-.92.827-2.28 1.285-.853.815-2.402 4.358-.887.927-.865.603-.628.95-.225 1.91-1.538 1.967-.415 1.129-.236 2.156.236 1.486.449 1.296v1.061l-1.078.794-1.325-.168-.797-1.218-.932-3.33-.09-.625-.123-.693-.325-.793-.337-.458-1.359-1.363-.213-.28-.067-.279.067-.234.213-.224.101-.09.101-.066.101-.045.124-.022.337-.682.045-.547-.259-.436-.55-.313-2.234-.056-1.134-.346-.875-.76-.303-.938.033-2.079-.46-1.117-1.504-1.061-3.727-.28-1.965-.134 1.796 1.866.629 1.062.28 1.731-.134 1.542-.528.57-.808.525-.977 1.453.82 1.441 3.84 2.391 1.896 2.078.887 1.34.584 1.431.236 1.81-.55 2.76.045 1.799.673 1.82 1.1 1.006 1.247.704 1.133.972.696 1.185.158 1.24.01 1.084.259.77 11.754 6.269h.09l1.19 1.173 2.863.29 1.313 1.24.19 1.766-.527 1.609-.09 1.296 3.177 1.866 1.123.435.483.86-.247 2.336-.64 1.832-1.785 3.296-.573 1.855-1.549-.48-.483 1.687-.033 2.514-.258 1.955-1.235 1.251-3.211 1.363-.92 1.8.381 1.25.808 1.531 1.606 2.302 1.122 1.005 1.19.805 2.582 1.24 1.078.559.651 1.274.056 1.575-.662 1.464.202.156.618.302-.37.938-.057.28.786.96 1.875 1.017.82.905.538 1.285.36 2.648.314 1.397.494 1.43.494 1.05.617.905.842.883.876.257.82-.123.583.47.101 1.999.224 3.91.393 1.922.887 1.721 1.505 1.251 3.592 1.687 1.56 1.61 2.56 5.675 1.224 1.274 1.549.559 4.58.67 1.449-.201-.337-1.53 1.066-.336 2.975.816 1.314.704 1.134.905 2.178 2.312 1.358.559.427.96.112 1.14.348 1.107 2.48 2.927v.011l.023.011.966.548 7.286 9.854 1.021 2.324 1.246 1.978 2.19 1.285 4.715.223 1.56.581.943.816 2.358 3.162 3.3 3.352.887 2.044.034 3.296 1.122 1.81 2.234 2.09 2.459 1.754 1.819.86.797-2.044.752-1.296 1.078-.492.494.112 1.29.257 1.37.849 1.314 1.039 1.324.737 1.415-.167.202 2.223.82 2.145 1.212 1.833 1.336 1.318 1.46.693 2.896.458 1.1.592 1.807 2.804 3.761 7.453 1.516 1.575 3.132.838 1.47.794 1.426 1.106 1.696 1.407 5.231 2.872.696.737 1.291 1.978.494.96.393.37.539.223.471.313.191.715-.135.737-.359.112-.381-.078-.225.167-.528 1.095-.437.168-.146.335.359 1.598.348.626 1.336 1.676.65.57 2.65 1.105 11.013 1.23 7.724 2.726.752-.09.607-.246 1.56-1.25 4.053-1.733 1.223-1.262 1.752-4.603 1.134-.783 1.863 2.19 3.099 1.62.92.213 1.168-.246 2.335-1.129 1.19-.1.505.458.09.737.011.771.247.492.606.067 1.19-.413.505.122.842 1.095.46 1.095.596.76 1.29.09 1.202-1.196.348-.358.404-3.039-.034-3.564.27-3.162 1.47-2.368 4.098-3.587.393-2.235.786-1.374.303-1.419.46-1.117 1.168-.447 4.075.559 4.008 1.642 1.583-.145.887-2.056-.169-.212-.337-.76-.336-.927-.158-.738.135-.804.561-1.486 1.64-7.34.01-3.252-.314-3.61.034-3.329 1.044-2.491-.056-.637v-.536l.112-.414.258-.179 1.696-.223 4.333 1.475 6.051.491.573 1.654.325 1.609-.034 1.598-.516 1.676 1.55.033 5.927-1.598.404-.257 1.078-1.284.258-.615.19-1.587.315-.48.595-.011.393.491.326.581.393.28 3.637.033 1.729.492 3.738 1.9 3.469 1.161 1.662.95 3.85 3.318 1.774.682 4.636 1.799 6.04 3.385 1.752.414h1.785l1.313-.414 2.762-1.452.685-.157 2.38-.01.449.334.314 1.453.382.592.527.223 1.493.112.854.615.572.268.651-.045-.797 1.05.988-.234.876.033.572.537.09 1.229 1.314-.336.404.503v.805l.123.592 7.814 5.664 4.131 1.777 7.185-.425 10.878 1.598.09-.078 1.617-.246 1.032.838.427.134 1.224-.346.853-.793 3.952-6.738 1.347-.894 2.234.324.82-.033 1.403-.592.707-.1.718.245 1.336.838 4.648 1.363 1.437.156 1.482.604.606 1.408.303 1.687.55 1.374 1.022.726 1.246.213 2.953-.112 1.2.402 2.807 1.855 1.437.536 1.482-.19 2.998-1.061 1.28.1 1.84 2.57 1.078 7.743 2.683 3.106.191-2.212 1.235-1.497.887-1.62 3.94-11.285 1.909-3.24 2.672-2.313 1.123-1.408.46-2.212.707-1.095 4.176-3.04 3.492-.725 3.738.972 8.869 4.469 1.358-.246 1.516-.994 1.426-.928 1.852-.547 1.123.547 2.38 2.514 2.851.436 14.942-5.866 1.381-1.117 2.683-4.604 1.258-1.039 1.908-.335 1.64.28 1.492-.079 1.426-1.396.64-1.61.595-3.642.483-1.743 1.033-2.055 1.639-1.04 1.886-.301 4.165.335 2.582-1.184 2.29-2.123 1.616-2.726.517-2.593-.101-5.273-.011-.704.269-3.162 1-3.877 1.447-3.609 1.875-3.028 2.29-2.156 10.475-4.056 2.885-2.246 1.83-1.43.18-5.631 2.267.514 1.751-1.15 3.323-4.034 2.549-1.363.64-.66.392-1.039.203-2.212.404-.972 1.594-1.017 3.446.503 2.212-1.162.539-.112.539.112 2.548 1.274 2.257.692 2.177-.122 3.189-2.928 1.46-.558 3.176-.09.337-1.977z"></path><g fill-rule="nonzero"><path d="M183.167 497.53l1.418-8.071c.016-.12.087-.18.214-.18h.191c.095 0 .163.04.203.12l2.621 5.668h.036l2.622-5.668c.04-.08.107-.12.203-.12h.19c.127 0 .199.06.215.18l1.406 8.07c.016.08.004.147-.036.199-.04.052-.1.078-.179.078h-1.084c-.12 0-.195-.06-.226-.18l-.704-4.552h-.035l-2.086 4.72c-.032.088-.1.132-.202.132h-.215c-.087 0-.155-.044-.202-.132l-2.11-4.72h-.036l-.69 4.552a.205.205 0 01-.078.126.213.213 0 01-.137.054h-1.073c-.175 0-.25-.092-.226-.277zm12.024-2.907v-4.996c0-.056.022-.108.066-.156a.21.21 0 01.16-.072h1.133c.063 0 .117.022.16.066a.221.221 0 01.066.162v4.912c0 .52.16.955.483 1.303.321.348.737.522 1.245.522.508 0 .926-.174 1.251-.522.326-.348.489-.779.489-1.291v-4.924c0-.064.022-.118.065-.162a.218.218 0 01.161-.066h1.132c.056 0 .108.024.155.072.048.048.072.1.072.156v4.996c0 .92-.32 1.701-.96 2.342-.639.64-1.428.96-2.365.96-.93 0-1.714-.32-2.354-.96-.64-.64-.959-1.421-.959-2.342zm9.88 2.954v-8.082c0-.056.021-.106.065-.15a.218.218 0 01.16-.066h.299l4.957 5.308h.012v-4.96a.22.22 0 01.066-.162.218.218 0 01.16-.066h1.097c.055 0 .107.024.155.072a.22.22 0 01.071.156v8.083a.208.208 0 01-.065.15.218.218 0 01-.161.066h-.286l-4.982-5.513h-.011v5.164a.221.221 0 01-.066.163.218.218 0 01-.16.066h-1.085a.21.21 0 01-.161-.072.228.228 0 01-.066-.157zm10.403 0v-7.95a.23.23 0 01.065-.156.21.21 0 01.161-.072h1.109c.055 0 .107.024.154.072.048.048.072.1.072.156v7.95a.219.219 0 01-.072.157.216.216 0 01-.154.072H215.7a.21.21 0 01-.16-.072.228.228 0 01-.066-.157zm5.565-.9c-.834-.841-1.251-1.862-1.251-3.063 0-1.2.419-2.224 1.257-3.068.838-.845 1.853-1.267 3.045-1.267 1.096 0 2.057.372 2.884 1.117.119.112.123.224.012.336l-.727.756c-.096.105-.195.105-.298 0a2.684 2.684 0 00-1.835-.708c-.755 0-1.387.274-1.895.823-.509.548-.763 1.207-.763 1.975 0 .76.256 1.413.769 1.958a2.506 2.506 0 001.9.816c.66 0 1.268-.228 1.824-.684.103-.096.202-.096.298 0l.739.769c.047.048.07.102.065.162a.25.25 0 01-.077.162c-.795.776-1.76 1.165-2.896 1.165-1.192 0-2.209-.417-3.05-1.25zm8.7.9v-7.95c0-.056.021-.108.065-.156a.21.21 0 01.16-.072h1.11c.063 0 .116.022.16.066a.221.221 0 01.066.162v3.183h3.885v-3.183a.22.22 0 01.065-.162.218.218 0 01.16-.066h1.097c.056 0 .108.024.155.072.048.048.072.1.072.156v7.95a.219.219 0 01-.072.157.216.216 0 01-.155.072h-1.096a.218.218 0 01-.16-.066.221.221 0 01-.066-.163v-3.314H231.3v3.314a.221.221 0 01-.066.163.218.218 0 01-.16.066h-1.11a.21.21 0 01-.16-.072.228.228 0 01-.066-.157z" fill="#FFF"></path><path d="M183 516.793v-.276c.755-.92 1.784-2.254 3.087-4 .405-.504.607-.948.607-1.332a1.05 1.05 0 00-.327-.77c-.219-.215-.53-.323-.936-.323-.46 0-.906.236-1.335.708-.103.112-.21.112-.321 0l-.572-.576c-.104-.104-.108-.208-.012-.312a1.92 1.92 0 01.107-.127c.048-.052.15-.146.31-.282.159-.136.324-.256.494-.36.171-.104.388-.198.65-.282.262-.084.524-.126.786-.126.819 0 1.466.228 1.943.684.476.457.715 1.025.715 1.706 0 .248-.04.488-.12.72a3.013 3.013 0 01-.256.577 14.79 14.79 0 01-.423.648c-.238.336-.921 1.225-2.05 2.666h2.575c.063 0 .117.022.16.066a.221.221 0 01.066.162v.83a.228.228 0 01-.065.155.21.21 0 01-.161.072h-4.696a.218.218 0 01-.16-.066.221.221 0 01-.066-.162zm11.905 0v-7.95c0-.056.022-.108.066-.156a.21.21 0 01.16-.073h1.109c.063 0 .117.022.16.067a.221.221 0 01.066.162v3.182h3.885v-3.182a.22.22 0 01.066-.162.218.218 0 01.16-.067h1.097c.056 0 .107.024.155.073.048.048.071.1.071.156v7.95a.219.219 0 01-.071.156.216.216 0 01-.155.072h-1.096a.218.218 0 01-.161-.066.221.221 0 01-.066-.162v-3.315h-3.885v3.315a.221.221 0 01-.065.162.218.218 0 01-.161.066h-1.108a.21.21 0 01-.161-.072.228.228 0 01-.066-.156zm11-.9c-.827-.841-1.24-1.862-1.24-3.063s.415-2.224 1.245-3.069c.83-.844 1.842-1.267 3.033-1.267 1.192 0 2.205.423 3.04 1.267.833.845 1.25 1.868 1.25 3.069 0 1.2-.417 2.22-1.25 3.056-.835.837-1.848 1.255-3.04 1.255-1.191 0-2.204-.416-3.039-1.249zm1.108-5.02a2.701 2.701 0 00-.799 1.957c0 .76.268 1.41.805 1.946a2.626 2.626 0 001.924.804c.755 0 1.4-.27 1.937-.81.536-.54.804-1.187.804-1.94 0-.76-.27-1.413-.81-1.958-.54-.544-1.184-.816-1.93-.816-.748 0-1.391.272-1.931.816zm8.854 2.966v-4.996c0-.056.022-.108.066-.156a.21.21 0 01.16-.073h1.133c.063 0 .117.022.16.067a.221.221 0 01.066.162v4.912c0 .52.16.954.483 1.303.321.348.737.522 1.245.522.508 0 .926-.174 1.251-.522.326-.349.489-.779.489-1.291v-4.924c0-.064.022-.118.065-.162a.218.218 0 01.161-.067h1.132c.056 0 .108.024.155.073.048.048.072.1.072.156v4.996c0 .92-.32 1.701-.96 2.342-.639.64-1.428.96-2.365.96-.93 0-1.714-.32-2.354-.96-.64-.64-.959-1.422-.959-2.342zm9.88 2.954v-7.95a.22.22 0 01.065-.162.218.218 0 01.16-.067h3.409c.715 0 1.327.253 1.835.757.509.505.763 1.113.763 1.826 0 .544-.161 1.03-.483 1.459-.322.428-.749.75-1.28.967l1.632 3.05c.047.08.05.158.006.234-.044.076-.113.114-.209.114h-1.251a.202.202 0 01-.19-.108l-1.586-3.182h-1.323v3.062a.228.228 0 01-.065.156.21.21 0 01-.16.072h-1.097a.218.218 0 01-.161-.066.221.221 0 01-.066-.162zm1.56-4.347h1.943c.318 0 .594-.12.828-.36.234-.24.352-.53.352-.865 0-.32-.118-.595-.352-.823a1.148 1.148 0 00-.828-.342h-1.943v2.39z" fill="#3F3F3F"></path></g><path d="M33.101 461.304c-.11-.117-.13-.242-.06-.375l.43-.775a.27.27 0 01.201-.144c.088-.013.155.006.203.056l.06.038c.039.033.084.066.136.1l.196.125c.08.05.159.098.238.143a3.942 3.942 0 00.571.256c.095.034.194.061.297.082.104.02.203.031.298.031.31 0 .567-.094.773-.281a.887.887 0 00.31-.681c0-.309-.124-.582-.37-.82-.245-.237-.626-.464-1.141-.68-.667-.284-1.206-.638-1.618-1.063-.413-.425-.619-.97-.619-1.637 0-.634.228-1.192.684-1.675.456-.484 1.12-.725 1.993-.725.88 0 1.673.279 2.379.837.055.034.091.096.107.188a.297.297 0 01-.036.225l-.452.712c-.127.2-.265.25-.416.15-.698-.458-1.25-.687-1.654-.687-.317 0-.57.091-.76.275-.191.183-.286.383-.286.6 0 .291.11.546.333.762.222.217.579.43 1.07.638.341.141.637.285.887.43.25.147.507.33.773.55.265.222.47.488.612.8.143.313.215.661.215 1.045 0 .675-.254 1.256-.762 1.743-.507.488-1.166.732-1.975.732a3.91 3.91 0 01-1.29-.213c-.409-.141-.7-.273-.875-.394a3.406 3.406 0 01-.452-.368zm9.184.612v-7.012h-1.82a.213.213 0 01-.16-.07.236.236 0 01-.066-.168v-1.025a.24.24 0 01.065-.169.213.213 0 01.16-.068h5.2c.063 0 .116.023.16.068a.236.236 0 01.065.17v1.024a.236.236 0 01-.065.169.213.213 0 01-.16.069h-1.82v7.012a.232.232 0 01-.072.163.212.212 0 01-.155.075h-1.106a.205.205 0 01-.16-.075.243.243 0 01-.066-.163zm5.912-3.075v-5.2a.24.24 0 01.066-.162.205.205 0 01.16-.075h1.13c.064 0 .117.023.161.068a.236.236 0 01.065.17v5.112c0 .541.161.993.482 1.356.321.362.736.544 1.243.544.508 0 .924-.182 1.25-.544.325-.363.487-.81.487-1.344v-5.125c0-.066.022-.123.066-.169a.213.213 0 01.16-.068h1.13c.056 0 .107.025.155.075.047.05.071.104.071.162v5.2c0 .959-.319 1.771-.957 2.438-.639.666-1.426 1-2.362 1-.928 0-1.71-.334-2.35-1-.638-.667-.957-1.48-.957-2.438zm10.98 3.075v-7.012h-1.82a.213.213 0 01-.16-.07.236.236 0 01-.066-.168v-1.025a.24.24 0 01.065-.169.213.213 0 01.161-.068h5.199c.063 0 .117.023.16.068a.236.236 0 01.066.17v1.024a.236.236 0 01-.066.169.213.213 0 01-.16.069h-1.82v7.012a.232.232 0 01-.072.163.212.212 0 01-.155.075h-1.106a.205.205 0 01-.16-.075.243.243 0 01-.066-.163zm7.304 0v-7.012h-1.82a.213.213 0 01-.16-.07.236.236 0 01-.066-.168v-1.025c0-.066.022-.123.066-.169a.213.213 0 01.16-.068h5.199c.063 0 .117.023.16.068a.236.236 0 01.066.17v1.024a.236.236 0 01-.066.169.213.213 0 01-.16.069h-1.82v7.012a.232.232 0 01-.072.163.212.212 0 01-.154.075h-1.107a.205.205 0 01-.16-.075.243.243 0 01-.066-.163zm6.59-.95c-.824-.866-1.237-1.925-1.237-3.175 0-1.25.417-2.314 1.25-3.194.832-.879 1.84-1.318 3.02-1.318 1.072 0 2.04.387 2.904 1.162.11.125.115.242.011.35l-.737.813c-.095.1-.198.1-.31 0-.523-.484-1.122-.725-1.796-.725-.737 0-1.366.285-1.885.856-.52.57-.78 1.252-.78 2.044 0 .783.26 1.456.78 2.018.52.563 1.152.844 1.897.844.452 0 .924-.104 1.416-.312v-1.063h-.952a.224.224 0 01-.16-.062.215.215 0 01-.066-.163v-.987c0-.159.075-.238.226-.238h2.284a.2.2 0 01.149.069.236.236 0 01.065.169v3.2a.24.24 0 01-.095.2 10.21 10.21 0 01-.392.225c-.167.091-.508.212-1.023.362a5.471 5.471 0 01-1.535.225c-1.19 0-2.2-.433-3.034-1.3zm8.137 1.188a.219.219 0 01-.196-.1c-.044-.067-.046-.142-.006-.225l3.7-8.413c.04-.091.107-.137.202-.137h.119c.095 0 .162.046.202.137l3.664 8.413c.04.083.038.158-.006.225a.219.219 0 01-.196.1h-1.035c-.15 0-.266-.084-.345-.25l-.583-1.35H83.17l-.583 1.35c-.063.166-.178.25-.345.25h-1.035zm2.546-2.988h2.391l-1.19-2.75h-.035l-1.166 2.75zm7.411 2.75v-8.275c0-.066.022-.123.066-.169a.213.213 0 01.16-.068h3.402c.714 0 1.325.262 1.832.787.508.525.762 1.159.762 1.9 0 .567-.16 1.073-.482 1.519a2.965 2.965 0 01-1.279 1.006l1.63 3.175c.047.084.05.165.006.244a.22.22 0 01-.208.119h-1.25a.2.2 0 01-.19-.113l-1.582-3.312h-1.32v3.187a.243.243 0 01-.066.163.205.205 0 01-.16.075H91.39a.213.213 0 01-.16-.07.236.236 0 01-.066-.168zm1.558-4.525h1.94c.317 0 .592-.125.826-.375.234-.25.351-.55.351-.9 0-.333-.117-.619-.35-.856a1.123 1.123 0 00-.828-.356h-1.939v2.487zm8.673 4.525v-7.012h-1.82a.213.213 0 01-.161-.07.236.236 0 01-.066-.168v-1.025c0-.066.022-.123.066-.169a.213.213 0 01.16-.068h5.199c.063 0 .117.023.16.068a.236.236 0 01.066.17v1.024a.236.236 0 01-.065.169.213.213 0 01-.161.069h-1.82v7.012a.232.232 0 01-.071.163.212.212 0 01-.155.075h-1.106a.205.205 0 01-.161-.075.243.243 0 01-.065-.163z" fill="#FFF" fill-rule="nonzero"></path><path d="M33.056 482.166c-.078-.1-.074-.204.012-.312l.598-.613c.11-.1.212-.1.305 0 .024.034.098.1.223.2.126.1.308.204.546.313.239.108.464.162.675.162.329 0 .618-.112.869-.337a1.08 1.08 0 00.376-.838c0-.341-.143-.633-.429-.875-.286-.241-.683-.362-1.191-.362h-.658c-.148 0-.223-.084-.223-.25v-.788c0-.166.075-.25.223-.25h.658c.461 0 .82-.108 1.074-.325.254-.216.381-.491.381-.825 0-.333-.113-.608-.34-.825a1.119 1.119 0 00-.798-.325c-.47 0-.865.2-1.186.6-.094.117-.2.121-.317.013l-.575-.575c-.11-.1-.11-.209 0-.325a.901.901 0 01.106-.12c.047-.045.144-.132.293-.262.149-.129.303-.241.464-.337.16-.096.364-.183.61-.263.247-.079.491-.118.734-.118.704 0 1.297.21 1.778.63.481.422.722.974.722 1.657 0 .442-.125.84-.376 1.194-.25.354-.528.606-.833.756v.038c.36.158.687.412.98.762.293.35.44.775.44 1.275 0 .709-.248 1.292-.745 1.75-.497.459-1.149.688-1.955.688-1.04 0-1.854-.371-2.441-1.113zm11.715.75v-8.275c0-.058.021-.112.064-.162a.201.201 0 01.159-.075h1.091c.063 0 .116.023.159.068a.237.237 0 01.064.17v3.312h3.827v-3.313c0-.066.021-.123.064-.169a.209.209 0 01.159-.068h1.08c.055 0 .106.025.152.075.047.05.07.104.07.162v8.275a.234.234 0 01-.07.163.208.208 0 01-.152.075h-1.08a.209.209 0 01-.159-.07.237.237 0 01-.064-.168v-3.45h-3.827v3.45a.237.237 0 01-.064.169.209.209 0 01-.159.069h-1.091a.201.201 0 01-.159-.075.244.244 0 01-.064-.163zm10.834-.937c-.814-.875-1.22-1.938-1.22-3.188 0-1.25.408-2.314 1.226-3.194.818-.879 1.813-1.318 2.987-1.318 1.174 0 2.172.44 2.993 1.318.822.88 1.233 1.944 1.233 3.194s-.41 2.31-1.233 3.181c-.821.871-1.819 1.307-2.993 1.307s-2.171-.434-2.993-1.3zm1.092-5.225c-.525.566-.787 1.246-.787 2.037 0 .792.264 1.467.792 2.025.529.559 1.16.838 1.896.838.744 0 1.38-.282 1.908-.844a2.846 2.846 0 00.792-2.019c0-.791-.266-1.47-.798-2.037s-1.166-.85-1.902-.85c-.735 0-1.37.283-1.901.85zm8.721 3.087v-5.2c0-.058.022-.112.065-.162a.201.201 0 01.158-.075h1.115c.063 0 .116.023.159.068a.237.237 0 01.064.17v5.112c0 .541.159.993.476 1.356.317.362.725.544 1.226.544s.912-.182 1.233-.544c.32-.363.481-.81.481-1.344v-5.125a.24.24 0 01.065-.169.209.209 0 01.158-.068h1.115c.055 0 .106.025.153.075.047.05.07.104.07.162v5.2c0 .959-.315 1.771-.945 2.438-.63.666-1.406 1-2.33 1a3.066 3.066 0 01-2.318-1c-.63-.667-.945-1.48-.945-2.438zm9.731 3.075v-8.275c0-.066.021-.123.065-.169a.209.209 0 01.158-.068h3.357c.704 0 1.307.262 1.808.787.5.525.751 1.159.751 1.9 0 .567-.158 1.073-.475 1.519a2.932 2.932 0 01-1.262 1.006l1.608 3.175a.237.237 0 01.006.244.217.217 0 01-.206.119h-1.232a.197.197 0 01-.188-.113l-1.561-3.312h-1.303v3.187a.244.244 0 01-.065.163.201.201 0 01-.158.075h-1.08a.209.209 0 01-.158-.07.237.237 0 01-.065-.168zm1.538-4.525H78.6c.313 0 .585-.125.816-.375.23-.25.346-.55.346-.9 0-.333-.115-.619-.346-.856a1.101 1.101 0 00-.816-.356h-1.913v2.487zm7.03 3.913c-.109-.117-.128-.242-.058-.375l.423-.775a.266.266 0 01.2-.144c.085-.013.152.006.199.056l.058.038c.04.033.085.066.135.1l.194.125c.078.05.157.098.235.143a3.86 3.86 0 00.563.256c.094.034.192.061.294.082.102.02.2.031.293.031.305 0 .56-.094.763-.281a.893.893 0 00.305-.681c0-.309-.12-.582-.363-.82-.243-.237-.619-.464-1.127-.68-.658-.284-1.19-.638-1.597-1.063-.407-.425-.61-.97-.61-1.637 0-.634.225-1.192.675-1.675.45-.484 1.105-.725 1.966-.725a3.66 3.66 0 012.348.837c.054.034.09.096.105.188a.301.301 0 01-.035.225l-.446.712c-.125.2-.262.25-.41.15-.69-.458-1.233-.687-1.632-.687-.313 0-.564.091-.752.275-.187.183-.281.383-.281.6 0 .291.11.546.328.762.22.217.572.43 1.057.638.336.141.628.285.874.43.247.147.501.33.763.55.262.222.464.488.605.8.14.313.211.661.211 1.045 0 .675-.25 1.256-.751 1.743-.501.488-1.15.732-1.949.732a3.8 3.8 0 01-1.273-.213c-.403-.141-.691-.273-.863-.394a3.37 3.37 0 01-.446-.368z" fill="#4A4A4A" fill-rule="nonzero"></path><g fill-rule="nonzero"><path d="M391.77 313.467v-7.845c0-.063.022-.116.066-.16a.222.222 0 01.162-.065h2.82c.736 0 1.368.257 1.896.77.528.514.792 1.13.792 1.85a2.56 2.56 0 01-.786 1.883 2.583 2.583 0 01-1.89.782h-1.5v2.785a.223.223 0 01-.066.154.212.212 0 01-.162.071h-1.104a.222.222 0 01-.162-.065.216.216 0 01-.066-.16zm1.56-4.23h1.392c.336 0 .626-.119.87-.356s.366-.53.366-.877a1.06 1.06 0 00-.366-.817 1.252 1.252 0 00-.87-.332h-1.392v2.382zm6.744 4.23v-7.845c0-.063.022-.116.066-.16a.222.222 0 01.162-.065h3.432c.72 0 1.336.249 1.848.747a2.42 2.42 0 01.768 1.801c0 .537-.162 1.017-.486 1.44a2.98 2.98 0 01-1.29.954l1.644 3.01c.048.079.05.156.006.23-.044.076-.114.113-.21.113h-1.26c-.088 0-.152-.035-.192-.106l-1.596-3.14h-1.332v3.021a.223.223 0 01-.066.154.212.212 0 01-.162.071h-1.104a.222.222 0 01-.162-.065.216.216 0 01-.066-.16zm1.572-4.29h1.956c.32 0 .598-.118.834-.355s.354-.521.354-.853c0-.316-.118-.587-.354-.812a1.168 1.168 0 00-.834-.338h-1.956v2.358zm6.732 4.515c-.088 0-.154-.031-.198-.094-.044-.064-.046-.135-.006-.214l3.732-7.975a.208.208 0 01.204-.13h.12c.096 0 .164.043.204.13l3.696 7.975c.04.08.038.15-.006.214-.044.063-.11.094-.198.094h-1.044c-.152 0-.268-.079-.348-.237l-.588-1.28h-3.588l-.588 1.28a.348.348 0 01-.348.237h-1.044zm2.568-2.832h2.412l-1.2-2.607h-.036l-1.176 2.607zm8.064 1.707c-.832-.822-1.248-1.825-1.248-3.01 0-1.185.42-2.195 1.26-3.028.84-.834 1.856-1.25 3.048-1.25 1.08 0 2.056.367 2.928 1.102.112.118.116.229.012.332l-.744.77c-.096.095-.2.095-.312 0a2.686 2.686 0 00-1.812-.687 2.55 2.55 0 00-1.902.811 2.688 2.688 0 00-.786 1.938c0 .742.262 1.38.786 1.914.524.533 1.162.8 1.914.8.456 0 .932-.1 1.428-.297v-1.007h-.96a.234.234 0 01-.162-.06.197.197 0 01-.066-.153v-.936c0-.15.076-.226.228-.226h2.304c.056 0 .106.022.15.066a.216.216 0 01.066.16v3.033a.224.224 0 01-.096.19c-.096.055-.228.126-.396.213s-.512.202-1.032.344a5.848 5.848 0 01-1.548.213c-1.2 0-2.22-.41-3.06-1.232zm8.976-2.015v-4.93c0-.055.022-.106.066-.154a.212.212 0 01.162-.07h1.14c.064 0 .118.02.162.064a.216.216 0 01.066.16v4.847c0 .514.162.942.486 1.286.324.344.742.515 1.254.515s.932-.171 1.26-.515c.328-.344.492-.768.492-1.274v-4.859c0-.063.022-.116.066-.16a.222.222 0 01.162-.065h1.14a.22.22 0 01.156.071.214.214 0 01.072.154v4.93c0 .909-.322 1.679-.966 2.31-.644.633-1.438.949-2.382.949-.936 0-1.726-.316-2.37-.948a3.115 3.115 0 01-.966-2.31zm9.948 2.915v-7.845c0-.063.022-.116.066-.16a.222.222 0 01.162-.065h4.884c.064 0 .118.022.162.065a.216.216 0 01.066.16v.972a.216.216 0 01-.066.16.222.222 0 01-.162.065h-3.552v1.944h2.964c.064 0 .118.023.162.07a.223.223 0 01.066.155v.983a.216.216 0 01-.066.16.222.222 0 01-.162.066h-2.964v2.073h3.552a.22.22 0 01.162.066.216.216 0 01.066.16v.971a.216.216 0 01-.066.16.222.222 0 01-.162.065h-4.884a.222.222 0 01-.162-.065.216.216 0 01-.066-.16z" fill="#FFF"></path><path d="M392.37 332.428v-5.677l-1.056.226a.182.182 0 01-.156-.024.181.181 0 01-.084-.13l-.072-.581c-.008-.095.012-.166.06-.213l1.728-1.434h.84c.056 0 .106.021.15.065a.216.216 0 01.066.16v7.608a.216.216 0 01-.066.16.208.208 0 01-.15.065h-1.032a.222.222 0 01-.162-.065.216.216 0 01-.066-.16zm4.224-.616c0-.27.1-.5.3-.694.2-.193.452-.29.756-.29.312 0 .592.126.84.38.248.252.372.643.372 1.172 0 .64-.146 1.177-.438 1.612-.292.435-.602.75-.93.948-.112.071-.212.063-.3-.024l-.18-.19c-.096-.11-.08-.217.048-.32l.06-.047c.048-.04.088-.075.12-.106l.126-.125c.052-.051.1-.106.144-.166.044-.059.094-.124.15-.195a1.34 1.34 0 00.144-.225 2.13 2.13 0 00.186-.545c.02-.103.03-.21.03-.32l-.024.011a.4.4 0 01-.066.024 1.694 1.694 0 01-.366.06.94.94 0 01-.684-.285.917.917 0 01-.288-.675zm4.56-.024c-.136-.15-.144-.285-.024-.403l.6-.58c.104-.088.2-.092.288-.013.048.048.128.113.24.196.112.083.298.182.558.296.26.115.51.172.75.172.4 0 .732-.138.996-.415.264-.276.396-.604.396-.983 0-.387-.128-.705-.384-.954-.256-.25-.612-.374-1.068-.374h-1.848a.326.326 0 01-.27-.13.452.452 0 01-.102-.284v-3.496c0-.063.022-.117.066-.16a.222.222 0 01.162-.065h3.792a.22.22 0 01.162.065.216.216 0 01.066.16v.806a.216.216 0 01-.066.16.222.222 0 01-.162.065h-2.664v1.576h1.032c.84 0 1.508.243 2.004.729s.744 1.12.744 1.902c0 .75-.28 1.39-.84 1.92-.56.529-1.248.793-2.064.793-.568 0-1.052-.102-1.452-.308-.4-.205-.704-.43-.912-.675zm11.796.64v-7.845c0-.055.022-.107.066-.154a.212.212 0 01.162-.071h1.116a.22.22 0 01.162.065.216.216 0 01.066.16v3.14h3.912v-3.14c0-.063.022-.117.066-.16a.222.222 0 01.162-.065h1.104a.22.22 0 01.156.07.214.214 0 01.072.155v7.845a.214.214 0 01-.072.154.22.22 0 01-.156.07h-1.104a.222.222 0 01-.162-.064.216.216 0 01-.066-.16v-3.27h-3.912v3.27a.216.216 0 01-.066.16.222.222 0 01-.162.065h-1.116a.212.212 0 01-.162-.071.223.223 0 01-.066-.154zm11.076-.889c-.832-.83-1.248-1.837-1.248-3.022 0-1.185.418-2.194 1.254-3.028.836-.833 1.854-1.25 3.054-1.25 1.2 0 2.22.417 3.06 1.25.84.834 1.26 1.843 1.26 3.028s-.42 2.19-1.26 3.016c-.84.826-1.86 1.238-3.06 1.238s-2.22-.41-3.06-1.232zm1.116-4.953a2.638 2.638 0 00-.804 1.931c0 .75.27 1.39.81 1.92s1.186.794 1.938.794c.76 0 1.41-.267 1.95-.8s.81-1.171.81-1.914c0-.75-.272-1.394-.816-1.931a2.671 2.671 0 00-1.944-.806c-.752 0-1.4.268-1.944.806zm8.916 2.927v-4.93c0-.055.022-.107.066-.154a.212.212 0 01.162-.071h1.14a.22.22 0 01.162.065.216.216 0 01.066.16v4.847c0 .513.162.942.486 1.285.324.344.742.516 1.254.516s.932-.172 1.26-.516c.328-.343.492-.768.492-1.274v-4.858c0-.063.022-.117.066-.16a.222.222 0 01.162-.065h1.14a.22.22 0 01.156.07.214.214 0 01.072.155v4.93c0 .908-.322 1.678-.966 2.31-.644.632-1.438.948-2.382.948-.936 0-1.726-.316-2.37-.948a3.115 3.115 0 01-.966-2.31zm9.948 2.915v-7.845c0-.063.022-.117.066-.16a.222.222 0 01.162-.065h3.432c.72 0 1.336.249 1.848.746a2.42 2.42 0 01.768 1.802c0 .537-.162 1.017-.486 1.44a2.97 2.97 0 01-1.29.953l1.644 3.01c.048.08.05.156.006.231-.044.075-.114.113-.21.113h-1.26a.205.205 0 01-.192-.107l-1.596-3.14h-1.332v3.022a.223.223 0 01-.066.154.212.212 0 01-.162.07h-1.104a.222.222 0 01-.162-.064.216.216 0 01-.066-.16zm1.572-4.29h1.956c.32 0 .598-.119.834-.356s.354-.521.354-.853c0-.316-.118-.586-.354-.812a1.168 1.168 0 00-.834-.337h-1.956v2.358z" fill="#747474"></path></g><path d="M16.408 454.87l202.214-98.591M156.185 493.08l61.63-137.801m53.777 4.7l-52.592-2.7m-2-1l-119.597 3m279.597-49l-157 46" stroke="#3F3F3F" stroke-linecap="square" stroke-dasharray="3,10"></path><circle fill="#D7B154" cx="377" cy="311.279" r="4"></circle><circle fill="#FFF" cx="220" cy="355.279" r="4"></circle><circle fill="#D7B154" cx="271" cy="359.279" r="4"></circle><circle fill="#D7B154" cx="156" cy="494.279" r="4"></circle><circle fill="#D7B154" cx="16" cy="454.279" r="4"></circle><circle fill="#D7B154" cx="98" cy="359.279" r="4"></circle><path d="M232.905 367.942c-.125-.468.15-.945.418-1.13.113-.08.322-.16.507-.085.465.19.499 1.048.493 1.704l1.318-.323.003-2.046v-.485c0-.042.016-.148-.007-.173l-.9.221-.163.303a73.055 73.055 0 00-.32-.11c-.126-.037-.253-.056-.396-.079-.353-.056-.799.116-1.011.219-.801.385-1.255 1.077-1.535 1.958-.212.669-.209 1.766.121 2.304.377.617.917 1.046 1.51 1.457.398.276.984.643 1.172 1.098.046.108.039.218.063.355a.762.762 0 01-.014.264c-.068.339-.212.543-.493.678-.15.072-.407.13-.597.052-.268-.11-.35-.41-.414-.714l-.038-.342-.02-.384c-.003-.13-.008-.261-.01-.391l-1.242.306-.007 2.787v.143c.322-.08.644-.16.966-.238l.103-.378.152.071.293.118c.291.106.722.078 1.014-.007 1.05-.306 1.68-1.141 2-2.144.14-.44.18-1.136.048-1.62a2.662 2.662 0 00-.337-.775c-.316-.478-.763-.84-1.246-1.16-.594-.396-1.226-.687-1.43-1.454m-.563-2.164c.04-.174.042-.419.008-.597-.03-.146-.039-.284-.095-.407-.14-.302-.42-.495-.923-.495h-.015l-.193.02c-.154.03-.3.068-.422.127-.32.156-.56.379-.678.702-.031.087-.034.172-.055.273a.88.88 0 00.217.724.647.647 0 00.382.194c.068.01.138 0 .204-.01.115-.016.217-.034.265.059.043.081.014.213-.02.282-.081.168-.241.288-.366.424l-.169.176c.009.041.047.071.071.102l.216.302c.039-.004.085-.043.118-.063.159-.092.29-.2.438-.298.126-.084.235-.192.335-.299.322-.343.56-.696.682-1.216m-1.59 2.852c-.235-.924-.523-1.68-1.374-2.002a1.66 1.66 0 00-.591-.1c-.51 0-1.038.184-1.365.37-.146.083-.287.157-.42.25-.701.486-1.174 1.213-1.46 2.102-.115.357-.156.74-.228 1.15-.044.243-.04.509-.04.777l.004.319.003.19.036.44.071.426c.098.38.226.688.434.953.109.137.233.252.378.353.036.026.07.061.114.077l.007.01c-.11.113-.195.252-.288.381-.333.46-.6.949-.78 1.563-.08.273-.139.7-.057 1.015.05.194.14.34.25.474.036.047.157.132.173.18-.063.03-.154.15-.199.206-.125.154-.241.31-.299.533-.118.456.049.9.278 1.123.036.035.077.083.128.103l.007.01c-.072.076-.223.139-.317.195-.26.154-.533.298-.823.423-.354.151-.723.302-1.114.422-.285.087-.581.149-.883.223-.251.06-.519.074-.784.12l-.257.021-.423.028h-.111a1.95 1.95 0 01-.477-.004 87.325 87.325 0 00-.446-.024c-.311-.05-.617-.062-.904-.132a9.728 9.728 0 01-1.585-.506l-.534-.263c-.078-.044-.15-.106-.25-.125a1.738 1.738 0 00-.445-.003 41.74 41.74 0 01-.267.01l-.638.035-.904.073 3.045-.784v-1.14l-.556.14v-8.583l-2.795.71-.004 1.058.552-.14v7.076a2.368 2.368 0 01-.331-.35c-.185-.224-.393-.43-.574-.662-.196-.252-.394-.504-.584-.766-.483-.668-.882-1.417-1.236-2.207-.156-.347-.287-.708-.434-1.073-.021-.053-.155-.382-.146-.42l2.105-4.601.676-.173h.008v-1.158l-2.508.634v1.157l.737-.183-2.371 5.132a.013.013 0 00-.008.003l.004-4.536.602-.149.004-1.16c-1.187.3-2.373.602-3.559.904v1.157l.606-.152v10.997l-.602.149-.004 1.088 3.587-.929v-1.063l-.634.155-.004-4.895h.004l.584 1.206c.091.202.17.405.26.603.158.346.362.67.563.98.756 1.167 1.862 2.093 3.087 2.807.276.16.571.319.873.45.326.14.661.265 1.005.395.251.095.514.15.783.229.368.106.768.16 1.172.239l.449.055.541.041.15.005c.086.001.173.004.26.007h.284l.264-.005c.165-.01.33-.023.495-.034.244-.038.476-.037.705-.084.362-.072.716-.127 1.048-.228 1.097-.331 1.974-.764 2.788-1.362.162-.118.31-.248.467-.37l.175-.164.285-.273c.14.009.318.047.48.02.175-.027.35-.019.513-.051.36-.071.694-.15 1.016-.25 1.145-.35 2.052-.894 2.61-1.819.333-.55.507-1.574.189-2.276-.248-.546-.931-.838-1.76-.658a6.27 6.27 0 00-.957.287c-.221.086-.44.187-.678.26-.095.029-.192.05-.299.07-.406.072-.734-.187-.637-.583a1.35 1.35 0 01.156-.367l.068-.114.174.055c.092.027.188.035.289.052.158.025.352.002.489-.025.365-.07.679-.162.954-.318.912-.518 1.44-1.265 1.784-2.335.083-.257.127-.532.185-.814.04-.192.03-.387.064-.59.026-.147-.005-.314.022-.47v-.246l-.005-.195c-.01-.12-.022-.242-.034-.363-.026-.14-.028-.27-.06-.399m-3.99 9.604c.187-.022.36-.03.527-.062.498-.097.962-.194 1.45-.296.167-.036.34-.054.516-.08l.22-.017c.273-.002.434.024.476.186.017.064-.01.134-.04.18-.071.118-.223.206-.368.274-.496.232-1.16.341-1.835.445-.146.023-.3.017-.458.035-.103.011-.237 0-.324-.01-.278-.035-.49-.078-.573-.247a.216.216 0 01-.01-.161c.015-.04.042-.074.066-.106.032-.044.069-.1.12-.131.016-.01.082-.01.141-.01l.043.001.049-.001m1.976-9.262c0 1.068-.003 2.136-.004 3.204 0 .502-.021.774-.358.982a.687.687 0 01-.347.12l-.054-.003c-.134-.019-.227-.059-.288-.141-.12-.16-.091-.39-.132-.625 0-.091-.002-.183-.004-.274l-.011-.557v-2.424c0-.563.001-1.102.277-1.415a.656.656 0 01.34-.172c.04-.004.08-.01.119-.013.581.007.462.788.462 1.318m-3.622 8.12h.007v-1.071l-.593.14h-.004v-5.797c0-1.12.04-2.074-.727-2.514a1.489 1.489 0 00-.772-.196h-.03l-.115.007-.208.032c-.228.051-.443.12-.624.217a2.97 2.97 0 00-.823.675l-.324.376v-.643l-3.03.721v1.072l.6-.14v7.632l-.593.14-.007 1.16 3.627-.917v-1.104l-.597.144v-5.822c0-.657.054-1.173.397-1.518.082-.084.29-.232.488-.2.22.034.231.251.27.453.027.138.01.298.035.446v.173l.003.9v6.356l3.02-.721m-8.5-8.797c.193-.939-.2-1.767-.928-1.767h-.014l-.155.026c-.097.03-.188.067-.272.113-.397.212-.693.64-.862 1.133a2.786 2.786 0 00-.104.431c-.14.798.188 1.462.648 1.632.258.096.551.001.742-.102.463-.248.81-.813.945-1.466" fill="#FFF"></path><path d="M218.767 354.653C209.686 341.9 208 340.591 208 335.903c0-6.42 5.373-11.624 12-11.624s12 5.204 12 11.625c0 4.687-1.686 5.996-10.767 18.75-.596.833-1.87.833-2.466 0zM220 340.747c2.761 0 5-2.168 5-4.843s-2.239-4.844-5-4.844-5 2.169-5 4.844c0 2.675 2.239 4.843 5 4.843z" fill="#D7B154" fill-rule="nonzero"></path><path d="M2 364.916v-8.412c0-.059.02-.11.063-.157a.2.2 0 01.153-.068h.285l4.733 5.525h.012v-5.163c0-.066.02-.123.062-.169a.2.2 0 01.154-.068h1.047c.053 0 .102.025.147.075.046.05.069.104.069.162v8.413c0 .058-.021.11-.063.156a.2.2 0 01-.153.069h-.274L3.48 359.54h-.011v5.375a.24.24 0 01-.063.169.2.2 0 01-.153.069H2.216a.193.193 0 01-.153-.075.249.249 0 01-.063-.163zm9.82-3.075v-5.2c0-.058.02-.112.062-.162a.193.193 0 01.154-.075h1.08a.2.2 0 01.154.068.241.241 0 01.063.17v5.112c0 .541.154.993.46 1.356a1.49 1.49 0 001.19.544c.485 0 .884-.182 1.195-.544.31-.363.466-.81.466-1.344v-5.125c0-.066.021-.123.063-.169a.2.2 0 01.153-.068h1.081c.053 0 .103.025.148.075.046.05.069.104.069.162v5.2c0 .959-.306 1.771-.916 2.438-.611.666-1.364 1-2.26 1-.887 0-1.636-.334-2.246-1-.611-.667-.916-1.48-.916-2.438zm9.433 3.075v-8.275c0-.066.02-.123.062-.169a.2.2 0 01.154-.068h3.254c.683 0 1.267.262 1.752.787.486.525.729 1.159.729 1.9 0 .567-.154 1.073-.461 1.519a2.86 2.86 0 01-1.224 1.006l1.56 3.175a.244.244 0 01.005.244.21.21 0 01-.2.119H25.69a.19.19 0 01-.182-.113l-1.513-3.312h-1.263v3.187a.248.248 0 01-.063.163.193.193 0 01-.153.075h-1.047a.2.2 0 01-.154-.07.241.241 0 01-.062-.168zm1.49-4.525h1.855c.303 0 .567-.125.79-.375.224-.25.336-.55.336-.9 0-.333-.112-.619-.335-.856a1.052 1.052 0 00-.791-.356h-1.855v2.487zm7.225 4.525v-8.275c0-.066.021-.123.063-.169a.2.2 0 01.154-.068h4.63a.2.2 0 01.154.068.241.241 0 01.063.17v1.024c0 .067-.02.123-.063.169a.2.2 0 01-.153.069h-3.368v2.05h2.81c.06 0 .112.025.154.075.042.05.062.104.062.162v1.038c0 .066-.02.123-.062.168a.2.2 0 01-.154.07h-2.81v2.187h3.368a.2.2 0 01.153.068.241.241 0 01.063.17v1.024c0 .067-.02.123-.063.169a.2.2 0 01-.153.069h-4.631a.2.2 0 01-.154-.07.241.241 0 01-.063-.168zm7.306-.05l1.354-8.4c.015-.125.083-.187.204-.187h.182c.091 0 .156.041.194.125l2.503 5.9h.034l2.504-5.9a.197.197 0 01.193-.125h.182c.121 0 .19.062.205.187l1.343 8.4a.264.264 0 01-.035.206c-.038.055-.094.082-.17.082H44.93c-.113 0-.186-.063-.216-.188l-.671-4.737h-.034l-1.992 4.912c-.03.092-.094.138-.193.138h-.205c-.083 0-.148-.046-.193-.138l-2.014-4.912h-.034l-.66 4.737a.217.217 0 01-.074.131.194.194 0 01-.131.057H37.49c-.167 0-.24-.096-.216-.288zm11.594.05v-8.275c0-.066.021-.123.063-.169a.2.2 0 01.153-.068h2.606c.675 0 1.244.22 1.707.662.463.442.694.992.694 1.65 0 .442-.13.844-.393 1.206-.261.363-.548.623-.859.782.372.133.712.377 1.019.73.307.355.46.79.46 1.307 0 .692-.238 1.267-.716 1.725-.478.459-1.066.688-1.764.688h-2.754a.2.2 0 01-.153-.07.241.241 0 01-.063-.168zm1.468-4.837h1.218a.879.879 0 00.705-.325c.182-.217.273-.484.273-.8 0-.317-.09-.573-.273-.77a.92.92 0 00-.705-.293h-1.218v2.188zm0 3.6h1.377a.946.946 0 00.728-.325c.197-.217.296-.488.296-.813a.994.994 0 00-.353-.775 1.183 1.183 0 00-.808-.312h-1.24v2.225zm6.69 1.237v-8.275c0-.066.022-.123.063-.169a.2.2 0 01.154-.068h4.631a.2.2 0 01.154.068.241.241 0 01.062.17v1.024a.24.24 0 01-.062.169.2.2 0 01-.154.069h-3.368v2.05h2.81c.061 0 .112.025.154.075.042.05.063.104.063.162v1.038a.238.238 0 01-.063.168.2.2 0 01-.154.07h-2.81v2.187h3.368a.2.2 0 01.154.068.241.241 0 01.062.17v1.024a.24.24 0 01-.062.169.2.2 0 01-.154.069h-4.631a.2.2 0 01-.154-.07.241.241 0 01-.062-.168zm7.83 0v-8.275c0-.066.02-.123.062-.169a.2.2 0 01.153-.068h3.255c.682 0 1.266.262 1.752.787.485.525.728 1.159.728 1.9 0 .567-.153 1.073-.46 1.519a2.86 2.86 0 01-1.224 1.006l1.559 3.175a.244.244 0 01.006.244.21.21 0 01-.2.119h-1.194a.19.19 0 01-.182-.113l-1.514-3.312h-1.263v3.187c0 .059-.02.113-.062.163a.193.193 0 01-.154.075h-1.047a.2.2 0 01-.153-.07.241.241 0 01-.063-.168zm1.49-4.525H68.2c.304 0 .567-.125.791-.375.224-.25.336-.55.336-.9 0-.333-.112-.619-.336-.856a1.052 1.052 0 00-.79-.356h-1.855v2.487zm7.84 3.575c-.79-.866-1.184-1.925-1.184-3.175 0-1.25.398-2.314 1.195-3.194.796-.879 1.76-1.318 2.89-1.318 1.024 0 1.95.387 2.776 1.162.107.125.11.242.012.35l-.706.813c-.09.1-.19.1-.295 0-.501-.484-1.074-.725-1.719-.725-.705 0-1.306.285-1.803.856-.497.57-.745 1.252-.745 2.044 0 .783.248 1.456.745 2.018.497.563 1.102.844 1.815.844.432 0 .883-.104 1.354-.312v-1.063h-.91a.209.209 0 01-.154-.062.22.22 0 01-.063-.163v-.987c0-.159.072-.238.217-.238h2.184c.053 0 .1.023.142.069a.241.241 0 01.063.169v3.2c0 .083-.03.15-.091.2a9.667 9.667 0 01-.376.225c-.159.091-.485.212-.978.362s-.982.225-1.468.225c-1.138 0-2.105-.433-2.901-1.3z" fill="#FFF" fill-rule="nonzero"></path><path d="M1.294 380.897v-5.281l-.998.21a.174.174 0 01-.147-.023.168.168 0 01-.08-.12l-.067-.541c-.008-.088.011-.154.056-.199l1.633-1.334h.793c.053 0 .1.02.142.061a.2.2 0 01.062.149v7.078a.2.2 0 01-.062.149.198.198 0 01-.142.06H1.51a.211.211 0 01-.215-.21zm3.99-.573a.86.86 0 01.283-.645.994.994 0 01.715-.27c.294 0 .559.117.793.352.234.235.352.6.352 1.092 0 .595-.138 1.095-.414 1.5-.276.403-.569.697-.879.881-.106.066-.2.059-.283-.022l-.17-.176c-.09-.103-.076-.203.045-.298l.057-.044a1.7 1.7 0 00.113-.1l.12-.115c.048-.048.094-.1.135-.155l.142-.181a1.25 1.25 0 00.136-.21 1.966 1.966 0 00.176-.507 1.53 1.53 0 00.028-.298l-.023.011a.38.38 0 01-.062.022 1.62 1.62 0 01-.346.056.895.895 0 01-.646-.265.847.847 0 01-.272-.628zm4.308-.023c-.129-.14-.136-.264-.023-.374l.567-.54c.098-.081.189-.085.272-.012.045.044.12.105.227.182.105.077.281.17.527.276.245.106.481.16.708.16.378 0 .692-.129.941-.386a1.27 1.27 0 00.374-.915c0-.36-.12-.656-.363-.888-.242-.231-.578-.347-1.009-.347h-1.745a.31.31 0 01-.255-.121.416.416 0 01-.097-.265v-3.252a.211.211 0 01.215-.21h3.583a.211.211 0 01.215.21v.75a.211.211 0 01-.215.21h-2.517v1.465h.975c.794 0 1.425.226 1.893.678.469.452.703 1.042.703 1.77 0 .698-.264 1.293-.793 1.786-.53.492-1.18.739-1.95.739-.537 0-.994-.096-1.372-.287-.378-.191-.665-.4-.861-.629zm11.143.596v-7.299c0-.051.02-.099.062-.143a.202.202 0 01.153-.066h1.054a.211.211 0 01.216.21v2.921h3.695v-2.922a.211.211 0 01.215-.21h1.043c.053 0 .102.023.148.067a.198.198 0 01.068.143v7.299a.199.199 0 01-.068.143.208.208 0 01-.148.066H26.13a.211.211 0 01-.215-.21v-3.042H22.22v3.043a.211.211 0 01-.215.21H20.95a.202.202 0 01-.153-.067.206.206 0 01-.062-.143zm10.462-.827c-.785-.772-1.178-1.709-1.178-2.811 0-1.103.394-2.042 1.184-2.817.79-.776 1.752-1.163 2.885-1.163 1.134 0 2.097.387 2.89 1.163.794.775 1.19 1.714 1.19 2.817 0 1.102-.396 2.037-1.19 2.805-.793.768-1.756 1.153-2.89 1.153-1.133 0-2.097-.383-2.89-1.147zm1.055-4.608c-.507.5-.76 1.098-.76 1.797 0 .698.255 1.293.765 1.786.51.492 1.12.738 1.831.738.718 0 1.332-.248 1.842-.744s.765-1.09.765-1.78c0-.699-.257-1.298-.77-1.797a2.543 2.543 0 00-1.837-.75c-.71 0-1.322.25-1.836.75zm8.422 2.723v-4.587c0-.051.02-.099.062-.143a.202.202 0 01.154-.066h1.076a.211.211 0 01.216.21v4.509c0 .477.153.876.459 1.196.306.32.7.48 1.184.48s.88-.16 1.19-.48c.31-.32.465-.715.465-1.185v-4.52a.211.211 0 01.215-.21h1.078c.053 0 .102.022.147.066a.198.198 0 01.068.143v4.587c0 .845-.304 1.562-.912 2.15-.609.588-1.359.882-2.25.882-.885 0-1.631-.294-2.24-.882a2.877 2.877 0 01-.912-2.15zm9.397 2.712v-7.299a.211.211 0 01.215-.21h3.243c.68 0 1.262.232 1.746.695.483.464.725 1.022.725 1.676 0 .5-.153.947-.46 1.34a2.801 2.801 0 01-1.218.887l1.553 2.8c.046.074.048.146.006.216s-.108.104-.198.104h-1.19c-.084 0-.144-.033-.182-.099l-1.508-2.922h-1.258v2.812c0 .051-.02.099-.062.143a.202.202 0 01-.153.066h-1.043a.211.211 0 01-.216-.21zm1.485-3.991h1.848c.302 0 .565-.11.788-.33a1.08 1.08 0 00.334-.795 1 1 0 00-.334-.755 1.113 1.113 0 00-.788-.314h-1.848v2.194z" fill="#4A4A4A" fill-rule="nonzero"></path><g fill-rule="nonzero"><path d="M292.848 363.9v-7.3a.21.21 0 01.215-.21h2.657c.694 0 1.29.239 1.787.717.497.478.746 1.052.746 1.72a2.37 2.37 0 01-.74 1.755 2.45 2.45 0 01-1.781.728h-1.414v2.592c0 .051-.02.099-.062.143a.201.201 0 01-.153.066h-1.04a.21.21 0 01-.215-.21zm1.47-3.937h1.312c.316 0 .59-.11.82-.331.23-.22.344-.493.344-.816a.982.982 0 00-.344-.761 1.188 1.188 0 00-.82-.31h-1.312v2.218zm6.355 3.938v-7.302c0-.052.02-.1.062-.144a.201.201 0 01.153-.066h1.051c.053 0 .102.022.147.066a.198.198 0 01.068.144v7.302a.195.195 0 01-.068.143.208.208 0 01-.147.066h-1.051a.201.201 0 01-.153-.066.206.206 0 01-.062-.143zm4.67 0v-7.302a.21.21 0 01.215-.21h1.04c.06 0 .111.022.153.066a.206.206 0 01.062.144v6.188h2.884a.21.21 0 01.214.21v.904a.21.21 0 01-.215.21h-4.138a.21.21 0 01-.215-.21zm6.434-.54c-.105-.104-.124-.214-.056-.332l.407-.684a.256.256 0 01.192-.126c.083-.012.147.005.192.05l.057.032c.037.03.08.06.13.088a6.99 6.99 0 00.413.237 3.922 3.922 0 00.543.226c.09.03.184.054.282.072.098.019.192.028.283.028a1.1 1.1 0 00.735-.248.76.76 0 00.294-.601c0-.272-.117-.513-.35-.723-.235-.21-.596-.41-1.086-.6-.634-.251-1.146-.563-1.538-.939-.392-.375-.588-.856-.588-1.444 0-.56.216-1.052.65-1.479.433-.426 1.065-.64 1.894-.64.837 0 1.59.247 2.261.74.053.03.087.084.102.165s.004.147-.034.199l-.43.628c-.12.177-.252.221-.395.133-.664-.405-1.187-.607-1.572-.607-.301 0-.543.081-.724.243-.18.162-.271.338-.271.53 0 .257.106.48.317.672.21.191.55.379 1.017.563.324.125.605.252.843.38.237.129.482.29.735.486.252.194.446.43.582.705.136.276.204.583.204.922 0 .595-.242 1.108-.724 1.538-.483.43-1.108.646-1.877.646-.43 0-.839-.063-1.227-.188-.388-.125-.665-.24-.831-.347a3.201 3.201 0 01-.43-.326zm7.667.54v-7.302a.21.21 0 01.215-.21h4.602a.21.21 0 01.215.21v.904a.21.21 0 01-.215.21h-3.347v1.809h2.793a.2.2 0 01.152.066.206.206 0 01.063.143v.916a.21.21 0 01-.215.21h-2.793v1.93h3.347a.21.21 0 01.215.21v.904a.21.21 0 01-.215.21h-4.602a.21.21 0 01-.215-.21zm7.78 0v-7.424c0-.051.02-.097.062-.138a.21.21 0 01.152-.06h.283l4.704 4.875h.011V356.6a.21.21 0 01.215-.21h1.04c.053 0 .102.022.147.066a.198.198 0 01.068.144v7.423c0 .051-.02.097-.062.138a.21.21 0 01-.153.06h-.27l-4.728-5.062h-.01v4.743a.21.21 0 01-.215.21h-1.03a.201.201 0 01-.152-.067.206.206 0 01-.063-.143z" fill="#FFF"></path><path d="M292.215 379.844a.21.21 0 01-.215-.21v-.915l4.07-4.831a.233.233 0 01.17-.066h.611a.21.21 0 01.215.21v4.698h.904c.06 0 .112.018.153.055a.183.183 0 01.062.144v.684a.21.21 0 01-.215.21h-.904l.011 1.411c0 .051-.02.1-.062.143a.201.201 0 01-.153.067h-.938a.208.208 0 01-.147-.067.198.198 0 01-.068-.143v-1.39h-3.494zm1.278-1.147h2.261v-2.647l-2.261 2.647zm6.852 1.941c-.128-.14-.136-.264-.023-.375l.566-.54c.098-.081.188-.085.271-.011.045.044.12.105.226.182.106.077.281.169.526.276.245.106.48.16.707.16.377 0 .69-.13.938-.387.25-.257.374-.562.374-.915 0-.36-.121-.656-.362-.888-.241-.232-.577-.347-1.007-.347h-1.741a.309.309 0 01-.254-.122.417.417 0 01-.097-.265v-3.253a.21.21 0 01.215-.21h3.574a.21.21 0 01.214.21v.75a.21.21 0 01-.215.21h-2.51v1.466h.973c.791 0 1.42.226 1.888.679.467.452.701 1.042.701 1.77 0 .698-.264 1.294-.791 1.787-.528.492-1.176.739-1.945.739-.536 0-.992-.096-1.369-.287-.376-.191-.663-.4-.859-.629zm10.595.552l1.346-7.413c.015-.11.083-.165.204-.165h.18c.09 0 .155.037.193.11l2.487 5.207h.034l2.488-5.207c.038-.073.102-.11.192-.11h.181c.12 0 .189.055.204.165l1.334 7.413c.015.073.004.134-.034.182-.038.048-.094.072-.17.072h-1.029c-.113 0-.184-.056-.214-.166l-.668-4.18h-.033l-1.98 4.335c-.03.08-.094.12-.192.12h-.203c-.083 0-.147-.04-.192-.12l-2.002-4.335h-.034l-.656 4.18a.188.188 0 01-.073.116.206.206 0 01-.13.05h-1.018c-.166 0-.237-.085-.215-.254zm11.523.044v-7.302a.2.2 0 01.062-.143.201.201 0 01.153-.067h1.051c.053 0 .102.022.147.067a.198.198 0 01.068.143v7.302c0 .051-.022.1-.068.143a.208.208 0 01-.147.067h-1.051a.201.201 0 01-.153-.067.206.206 0 01-.062-.143zm4.67 0v-7.423c0-.052.02-.098.062-.138a.21.21 0 01.153-.061h.283l4.704 4.875h.01v-4.555a.21.21 0 01.215-.21h1.041c.053 0 .102.022.147.067a.198.198 0 01.068.143v7.423c0 .052-.02.098-.062.138a.21.21 0 01-.153.06h-.271l-4.727-5.062h-.011v4.743a.21.21 0 01-.215.21h-1.03a.201.201 0 01-.152-.067.206.206 0 01-.062-.143z" fill="#737373"></path></g></g>
    </svg>