<?xml version="1.0" standalone="no"?>
<!DOCTYPE svg PUBLIC "-//W3C//DTD SVG 20010904//EN"
 "http://www.w3.org/TR/2001/REC-SVG-20010904/DTD/svg10.dtd">
<svg version="1.0" xmlns="http://www.w3.org/2000/svg"
 width="512.000000pt" height="513.000000pt" viewBox="0 0 512.000000 513.000000"
 preserveAspectRatio="xMidYMid meet">

<g transform="translate(0.000000,513.000000) scale(0.100000,-0.100000)"
fill="#000000" stroke="none">
<path d="M2443 4784 c-23 -9 -79 -48 -125 -89 -126 -112 -2109 -2016 -2131
-2046 -48 -66 -24 -174 48 -219 41 -25 118 -30 156 -9 13 7 74 60 134 118
l110 106 5 -1040 5 -1040 24 -53 c31 -68 113 -144 183 -169 49 -17 95 -18 583
-18 529 0 530 0 565 22 20 12 46 40 58 61 l22 40 0 710 c0 702 0 710 21 736
l20 26 439 0 439 0 20 -26 c21 -26 21 -34 21 -736 0 -685 1 -710 20 -747 11
-22 36 -50 57 -62 l38 -24 530 0 c488 0 534 1 583 18 70 25 152 101 183 169
l24 53 5 1040 5 1040 110 -106 c61 -58 121 -111 134 -118 41 -23 117 -17 160
12 70 46 90 152 43 217 -10 14 -188 187 -395 385 l-376 360 0 558 c-1 610 0
595 -60 652 l-32 30 -309 0 -309 0 -31 -30 c-53 -50 -55 -59 -60 -253 l-5
-183 -303 290 c-202 193 -319 298 -350 313 -60 29 -195 36 -259 12z m923
-1069 l794 -759 0 -1158 0 -1158 -400 0 -399 0 -3 648 -3 647 -23 58 c-33 81
-116 168 -200 209 l-67 33 -505 0 -505 0 -67 -33 c-84 -41 -167 -128 -200
-209 l-23 -58 -3 -648 -3 -647 -399 0 -400 0 0 1158 0 1157 797 763 c438 419
801 761 807 759 5 -2 366 -345 802 -762z m474 299 l0 -305 -80 72 -80 73 0
233 0 233 80 0 80 0 0 -306z"/>
</g>
</svg>
