<?xml version="1.0" standalone="no"?>
<!DOCTYPE svg PUBLIC "-//W3C//DTD SVG 20010904//EN"
 "http://www.w3.org/TR/2001/REC-SVG-20010904/DTD/svg10.dtd">
<svg version="1.0" xmlns="http://www.w3.org/2000/svg"
 width="512.000000pt" height="512.000000pt" viewBox="0 0 512.000000 512.000000"
 preserveAspectRatio="xMidYMid meet">

<g transform="translate(0.000000,512.000000) scale(0.100000,-0.100000)"
fill="#000000" stroke="none">
<path d="M78 5100 c-43 -23 -78 -82 -78 -130 0 -48 33 -103 78 -128 38 -21 50
-22 256 -22 119 0 216 -3 216 -7 0 -34 564 -3671 576 -3713 45 -160 173 -313
321 -385 69 -33 82 -43 77 -60 -2 -11 -11 -45 -19 -75 -19 -69 -19 -138 0
-219 21 -87 59 -155 125 -221 233 -232 615 -164 757 135 32 68 37 88 40 173 3
68 0 111 -10 145 l-15 47 523 0 522 0 -13 -52 c-51 -195 38 -413 210 -517 374
-225 825 131 692 547 -7 22 -7 22 107 22 99 0 119 3 157 23 100 53 107 192 13
254 -26 17 -102 18 -1493 23 l-1465 5 -49 23 c-112 51 -189 152 -202 265 l-7
57 1484 2 1484 3 67 27 c192 77 340 235 392 418 8 30 79 469 157 975 154 1003
153 998 108 1122 -64 174 -211 288 -403 313 -41 5 -847 10 -1903 10 -1008 0
-1833 4 -1833 8 0 5 -29 199 -65 433 -69 445 -70 449 -129 493 -26 20 -42 21
-334 23 -290 2 -309 1 -344 -17z m2052 -1735 l0 -495 -489 0 -489 0 -6 33 c-7
40 -146 945 -146 952 0 3 254 5 565 5 l565 0 0 -495z m1288 -2 l2 -493 -495 0
-495 0 0 488 c0 269 3 492 7 495 3 4 225 6 492 5 l486 -3 3 -492z m1298 475
c51 -28 92 -82 99 -131 5 -32 -9 -152 -49 -413 -31 -203 -59 -381 -62 -396
l-6 -28 -489 0 -489 0 0 495 0 496 483 -3 c431 -3 485 -5 513 -20z m-2586
-1758 l0 -490 -390 0 -390 0 -5 23 c-6 27 -145 933 -145 947 0 7 155 10 465
10 l465 0 0 -490z m1290 0 l0 -490 -495 0 -495 0 0 490 0 490 495 0 495 0 0
-490z m1230 477 c0 -8 -25 -175 -55 -372 -37 -238 -63 -374 -77 -406 -27 -64
-120 -151 -184 -173 -39 -13 -96 -16 -331 -16 l-283 0 0 490 0 490 465 0 c379
0 465 -2 465 -13z m-2613 -1933 c113 -54 125 -228 20 -293 -71 -44 -145 -39
-204 12 -66 58 -80 132 -40 208 42 79 141 112 224 73z m1934 -4 c94 -48 117
-176 46 -257 -57 -65 -127 -79 -204 -42 -63 30 -97 92 -91 164 10 124 136 192
249 135z"/>
</g>
</svg>
