<?xml version="1.0" standalone="no"?>
<!DOCTYPE svg PUBLIC "-//W3C//DTD SVG 20010904//EN"
 "http://www.w3.org/TR/2001/REC-SVG-20010904/DTD/svg10.dtd">
<svg version="1.0" xmlns="http://www.w3.org/2000/svg"
 width="99.000000pt" height="103.000000pt" viewBox="0 0 99.000000 103.000000"
 preserveAspectRatio="xMidYMid meet">

<g transform="translate(0.000000,103.000000) scale(0.100000,-0.100000)"
fill="#000000" stroke="none">
<path d="M258 741 l-33 -29 -3 -184 c-4 -212 0 -242 35 -274 26 -24 28 -24
238 -24 l212 0 26 26 c34 34 39 74 35 283 l-3 173 -33 29 -32 29 -205 0 -205
0 -32 -29z m409 -113 c13 -12 23 -29 23 -37 0 -20 -220 -241 -240 -241 -24 0
-153 134 -148 155 1 10 15 27 31 38 l27 21 45 -44 45 -45 88 88 c48 48 91 87
96 87 5 0 20 -10 33 -22z"/>
</g>
</svg>
