<?xml version="1.0" encoding="UTF-8"?>
<svg version="1.1" xmlns="http://www.w3.org/2000/svg" width="30" height="30">
<path d="M0 0 C0.97055328 0.00215515 1.94110657 0.0043103 2.94107056 0.00653076 C17.26930898 0.0575666 31.29685782 0.40491562 45.375 3.3125 C46.35807129 3.51117676 47.34114258 3.70985352 48.35400391 3.91455078 C91.26447707 12.83891309 132.3414843 32.04845469 164.375 62.3125 C165.70361796 63.46379758 167.03684718 64.60979878 168.375 65.75 C176.36403654 72.74241629 183.54882117 80.31698556 190.08984375 88.67675781 C190.99985298 89.83501424 191.91728129 90.98745944 192.83984375 92.13574219 C219.40695766 125.21213026 236.42227973 164.51533282 243.375 206.3125 C243.5596582 207.3957959 243.5596582 207.3957959 243.74804688 208.50097656 C249.74321466 244.9508872 246.00333923 283.11945211 235.375 318.3125 C235.12411621 319.14765137 234.87323242 319.98280273 234.61474609 320.84326172 C220.86988606 365.47207092 192.27287849 407.5621226 155.375 436.3125 C154.1195289 437.31998515 152.864339 438.32782077 151.609375 439.3359375 C108.56278579 473.52437871 55.37539893 490.83821843 0.6875 490.625 C-0.2836676 490.62317719 -1.25483521 490.62135437 -2.25543213 490.61947632 C-16.2575203 490.57521428 -29.87364275 490.1612177 -43.625 487.3125 C-44.47400879 487.15152832 -45.32301758 486.99055664 -46.19775391 486.82470703 C-78.97661921 480.57396536 -111.46420975 467.9177539 -138.625 448.3125 C-139.29241211 447.83603027 -139.95982422 447.35956055 -140.64746094 446.86865234 C-159.28554153 433.48328211 -176.51303591 418.48311162 -190.625 400.3125 C-191.63097354 399.05816299 -192.63752341 397.80428805 -193.64453125 396.55078125 C-219.45206983 364.06359884 -235.83239156 325.14713445 -242.625 284.3125 C-242.74810547 283.59030273 -242.87121094 282.86810547 -242.99804688 282.12402344 C-248.99321466 245.6741128 -245.25333923 207.50554789 -234.625 172.3125 C-234.24867432 171.05977295 -234.24867432 171.05977295 -233.86474609 169.78173828 C-222.24082763 132.03951042 -200.5650965 99.72889835 -173.625 71.3125 C-172.55765625 70.18134766 -172.55765625 70.18134766 -171.46875 69.02734375 C-166.24172524 63.63965224 -160.50824302 58.963285 -154.625 54.3125 C-153.63628906 53.5184375 -152.64757812 52.724375 -151.62890625 51.90625 C-121.48182147 28.1197861 -85.88843442 11.66708849 -48.25 4 C-47.52748047 3.85272461 -46.80496094 3.70544922 -46.06054688 3.55371094 C-30.72941368 0.65963761 -15.56727809 -0.06228976 0 0 Z M-143.625 60.3125 C-144.49769531 60.993125 -145.37039062 61.67375 -146.26953125 62.375 C-194.9852193 101.17636793 -225.70444536 157.82586738 -233.15771484 219.55004883 C-233.65816826 224.1815633 -233.81842273 228.77378998 -233.86328125 233.4296875 C-233.8730751 234.27622391 -233.88286896 235.12276031 -233.89295959 235.99494934 C-234.07143239 255.44137648 -233.74964915 274.21794843 -229.625 293.3125 C-229.41069336 294.30685059 -229.19638672 295.30120117 -228.97558594 296.32568359 C-220.93921458 332.24370142 -204.37904975 364.55610318 -181.625 393.3125 C-181.16722168 393.89950684 -180.70944336 394.48651367 -180.23779297 395.09130859 C-179.08129204 396.53788618 -177.858451 397.93095025 -176.625 399.3125 C-175.965 399.3125 -175.305 399.3125 -174.625 399.3125 C-174.37967529 398.82072266 -174.13435059 398.32894531 -173.8815918 397.82226562 C-155.78411597 361.81952913 -129.65331624 332.53718259 -94.625 312.3125 C-92.93890625 311.32830078 -92.93890625 311.32830078 -91.21875 310.32421875 C-70.13960618 298.36359727 -46.52917225 291.58243919 -22.625 288.3125 C-21.67753906 288.17972656 -20.73007813 288.04695313 -19.75390625 287.91015625 C27.37120704 282.54333368 76.49403491 298.45719061 113.62890625 327.26953125 C118.28752421 330.98420708 122.63344998 335.00011242 126.921875 339.1328125 C129.18600194 341.34673587 129.18600194 341.34673587 131.578125 342.3671875 C133.92831803 343.6035934 134.29235767 344.93519788 135.375 347.3125 C136.75203161 348.81898122 136.75203161 348.81898122 138.375 350.25 C151.7801306 363.34983777 161.05667524 380.3597361 169.5625 396.86328125 C171.29430484 400.30411312 171.29430484 400.30411312 173.375 403.3125 C186.1163514 390.01837847 196.17247477 375.22519988 205.375 359.3125 C205.97441406 358.28068604 205.97441406 358.28068604 206.5859375 357.22802734 C236.35933848 305.33688595 242.07088543 241.59924407 227.25 184.1875 C218.87811467 153.81534535 204.75006201 126.08271938 185.375 101.3125 C184.69050781 100.43335937 184.00601562 99.55421875 183.30078125 98.6484375 C143.96935324 49.35692513 86.97599761 18.90082376 24.49755859 11.51586914 C-35.57128748 5.76048051 -96.25562263 22.69360761 -143.625 60.3125 Z " fill="000000" transform="translate(255.625,10.6875)"/>
<path d="M0 0 C19.77606342 15.64375166 32.6921609 37.26873568 36.3046875 62.359375 C38.64792634 86.24898077 33.28460338 110.26863049 18.625 129.625 C1.99626132 149.76374555 -18.95522241 162.81080198 -45.109375 166.09375 C-69.15821998 168.18495391 -92.90481765 162.54380609 -112 147.375 C-113.46411971 146.13178256 -114.92264801 144.88194463 -116.375 143.625 C-117.20128906 142.98949219 -118.02757812 142.35398437 -118.87890625 141.69921875 C-134.64939537 128.59416441 -145.42677882 105.89798633 -147.375 85.625 C-149.20333535 59.12156966 -143.59848399 34.27020583 -125.83105469 13.85058594 C-93.33063631 -22.1093684 -39.51683644 -28.49239417 0 0 Z " fill="000000" transform="translate(309.375,119.375)"/>
</svg>
