<?xml version="1.0" standalone="no"?>
<!DOCTYPE svg PUBLIC "-//W3C//DTD SVG 20010904//EN"
 "http://www.w3.org/TR/2001/REC-SVG-20010904/DTD/svg10.dtd">
<svg version="1.0" xmlns="http://www.w3.org/2000/svg"
 width="90.000000pt" height="91.000000pt" viewBox="0 0 90.000000 91.000000"
 preserveAspectRatio="xMidYMid meet">

<g transform="translate(0.000000,91.000000) scale(0.100000,-0.100000)"
fill="#000000" stroke="none">
<path d="M211 651 c-18 -11 -27 -118 -16 -188 6 -44 16 -57 147 -189 77 -78
149 -145 161 -148 16 -4 42 16 124 96 65 64 103 109 103 123 0 21 -255 283
-297 304 -26 13 -202 15 -222 2z m131 -75 c14 -21 8 -55 -12 -66 -29 -16 -59
-3 -66 27 -12 46 52 77 78 39z"/>
</g>
</svg>
