<?xml version="1.0" standalone="no"?>
<!DOCTYPE svg PUBLIC "-//W3C//DTD SVG 20010904//EN"
 "http://www.w3.org/TR/2001/REC-SVG-20010904/DTD/svg10.dtd">
<svg version="1.0" xmlns="http://www.w3.org/2000/svg"
 width="512.000000pt" height="512.000000pt" viewBox="0 0 512.000000 512.000000"
 preserveAspectRatio="xMidYMid meet">

<g transform="translate(0.000000,512.000000) scale(0.100000,-0.100000)"
fill="#000000" stroke="none">
<path d="M0 4906 l0 -215 169 -3 169 -3 43 -30 c86 -61 69 41 259 -1574 94
-799 175 -1474 180 -1500 41 -218 211 -409 430 -484 l65 -22 1478 -3 1477 -2
0 210 0 210 -1418 0 c-1219 0 -1425 2 -1468 15 -54 16 -115 70 -134 119 -11
29 -40 228 -40 273 l0 23 1725 0 c949 0 1725 2 1725 4 0 7 449 2496 456 2529
l6 27 -2111 0 -2111 0 0 33 c-1 65 -31 174 -71 257 -82 165 -252 297 -434 335
-45 9 -129 15 -232 15 l-163 0 0 -214z m4605 -878 c-3 -13 -71 -387 -150 -833
-80 -445 -148 -818 -151 -828 -5 -16 -87 -17 -1577 -15 l-1572 3 -97 820 c-53
451 -97 832 -97 848 l-1 27 1825 0 1825 0 -5 -22z"/>
<path d="M1365 833 c-121 -44 -205 -118 -258 -231 -30 -63 -32 -74 -32 -177 0
-105 2 -114 34 -180 133 -270 485 -327 690 -110 201 212 140 546 -123 675 -62
31 -80 35 -165 37 -73 3 -108 -1 -146 -14z"/>
<path d="M3490 830 c-165 -61 -273 -200 -287 -371 -21 -254 202 -477 456 -456
176 15 322 132 375 302 28 88 19 211 -21 297 -44 93 -109 160 -201 205 -68 34
-83 38 -171 40 -77 3 -107 -1 -151 -17z"/>
</g>
</svg>
