<?xml version="1.0" standalone="no"?>
<!DOCTYPE svg PUBLIC "-//W3C//DTD SVG 20010904//EN"
 "http://www.w3.org/TR/2001/REC-SVG-20010904/DTD/svg10.dtd">
<svg version="1.0" xmlns="http://www.w3.org/2000/svg"
 width="512.000000pt" height="512.000000pt" viewBox="0 0 512.000000 512.000000"
 preserveAspectRatio="xMidYMid meet">

<g transform="translate(0.000000,512.000000) scale(0.100000,-0.100000)"
fill="#000000" stroke="none">
<path d="M1885 5101 c-96 -44 -115 -94 -115 -295 l0 -156 -812 -2 -813 -3 -42
-23 c-139 -74 -132 -278 12 -343 38 -18 103 -19 1413 -19 l1373 0 -7 -22 c-13
-44 -185 -379 -251 -490 -174 -296 -459 -674 -636 -847 l-45 -43 -65 68 c-167
178 -328 383 -482 614 -62 94 -124 179 -137 189 -81 63 -194 49 -265 -32 -36
-41 -48 -87 -40 -153 11 -99 345 -563 617 -859 88 -95 91 -100 73 -115 -476
-386 -1059 -870 -1075 -893 -32 -45 -37 -140 -10 -193 23 -44 43 -65 89 -88
41 -21 125 -21 166 0 25 14 866 696 1082 880 l50 42 35 -30 c140 -119 366
-302 393 -318 22 -14 50 -20 91 -20 82 0 135 32 170 102 30 59 33 103 11 156
-22 51 -37 65 -237 229 -98 80 -178 147 -178 150 0 3 34 42 77 87 374 398 712
916 941 1446 l59 135 234 5 c257 5 271 9 322 70 52 61 59 132 21 208 -19 39
-38 59 -72 80 l-47 27 -812 3 -813 3 0 147 c0 81 -5 164 -10 184 -31 110 -160
168 -265 119z"/>
<path d="M3704 3179 c-62 -24 -136 -86 -168 -142 -13 -23 -244 -647 -512
-1387 -367 -1013 -488 -1359 -492 -1403 -14 -179 167 -300 328 -217 79 41 98
79 216 433 l36 107 710 -2 711 -3 76 -220 c42 -121 87 -235 99 -253 32 -44
100 -81 161 -89 136 -16 263 107 248 242 -6 56 -974 2746 -1007 2801 -33 52
-106 111 -166 134 -71 26 -171 26 -240 -1z m159 -691 c144 -406 517 -1484 517
-1494 0 -12 -96 -14 -560 -14 -308 0 -560 3 -560 7 0 8 516 1491 536 1541 21
51 39 40 67 -40z"/>
</g>
</svg>
