<?xml version="1.0" standalone="no"?>
<!DOCTYPE svg PUBLIC "-//W3C//DTD SVG 20010904//EN"
 "http://www.w3.org/TR/2001/REC-SVG-20010904/DTD/svg10.dtd">
<svg version="1.0" xmlns="http://www.w3.org/2000/svg"
 width="85.000000pt" height="85.000000pt" viewBox="0 0 85.000000 85.000000"
 preserveAspectRatio="xMidYMid meet">

    <g transform="translate(0.000000,85.000000) scale(0.100000,-0.100000)"
    fill="#000000" stroke="none">
    <path d="M313 612 c-6 -4 -13 -25 -15 -47 -3 -39 -4 -40 -44 -43 -34 -2 -49
    -11 -90 -53 l-48 -49 2 -77 c2 -58 -2 -80 -14 -94 -21 -23 -10 -39 26 -39 21
    0 29 -6 34 -25 22 -86 150 -86 172 0 6 24 10 25 74 25 64 0 68 -1 74 -25 22
    -86 150 -86 172 0 3 14 14 25 27 27 22 3 22 7 25 193 2 170 1 191 -15 202 -19
    14 -359 19 -380 5z m-13 -177 l0 -45 -70 0 c-38 0 -70 3 -70 7 0 4 17 24 37
    45 28 29 45 38 70 38 32 0 33 -1 33 -45z m-16 -201 c9 -8 16 -22 16 -29 0 -19
    -28 -45 -47 -45 -20 0 -53 29 -53 46 0 19 29 44 50 44 10 0 26 -7 34 -16z
    m320 0 c9 -8 16 -22 16 -29 0 -19 -28 -45 -47 -45 -20 0 -53 29 -53 46 0 19
    29 44 50 44 10 0 26 -7 34 -16z"/>
    </g>
</svg>
