<?xml version="1.0" encoding="UTF-8"?>
<svg version="1.1" viewBox="0 0 2048 2048" width="512" height="512" xmlns="http://www.w3.org/2000/svg">
<path transform="translate(977)" d="m0 0h114v1l55 8 39 8 36 10 27 9 35 14 20 9 19 10 25 14 22 14 17 12 16 12 11 9 13 11 26 24 16 17 10 11 9 11 11 14 14 19 15 23 13 22 14 26 15 33 7 17 10 29 8 27 9 36 6 33 4 30 3 32v68l-3 31-3 22-7 36-8 30-11 33-10 25-11 24-16 31-13 22-14 22-12 17-11 15-11 14-13 16-10 11-7 8-11 12-7 8-27 27-8 7-17 16-8 7-13 11-11 9-13 11-11 9-16 13-14 11-15 13-11 9-11 10-11 9-8 8-8 7-15 15-7 8-9 10-11 14-9 12-10 15-10 18-11 25-8 24-6 27-5 34-5 18-6 15-9 15-9 11-12 12-15 10-14 7-15 5-12 2h-164l-14-2-16-5-19-9-13-10-10-9-12-15-10-18-7-21-2-11-1-11v-37l2-31 4-33 5-28 7-30 9-30 12-31 9-20 8-16 14-25 13-20 13-18 8-11h2l2-4 9-11 11-12 4-5h2l2-4 12-12h2l1-3 8-7 3-3h2v-2l11-9 13-11 14-11 17-14 14-11 16-13 14-11 13-11 10-8 28-24 12-11h2v-2l8-7 6-6h2v-2h2v-2l8-7 7-7 1-2h2v-2h2l2-4 9-9 7-9h2l2-4 11-13 13-18 10-15 9-15 8-16 6-13 7-19 5-18 4-19 2-18v-34l-2-18-4-20-6-20-8-18-10-18-10-14-9-11-17-17-17-13-19-12-16-8-19-8-23-7-20-4-21-2h-27l-21 2-24 5-30 10-15 7-16 8-16 10-14 10-10 8-11 9-7 6-12 12-7 8-9 10-11 14-13 18-10 15-13 22-11 16-14 15-17 13-19 10-18 6-15 3-9 1h-18l-19-3-14-4-20-9-28-15-37-19-19-10-17-10-12-9-9-8v-2h-2l-7-8-10-14-8-15-7-19-4-19-1-8v-21l3-20 6-20 8-18 12-25 9-17 11-19 14-22 16-23 10-13 7-9 14-17 11-12 12-13 22-22 8-7 12-11 14-11 15-12 18-13 18-12 19-12 23-13 27-14 26-12 35-14 40-13 34-9 39-8 34-5 25-3zm35 67-31 2-35 4-35 6-38 9-39 12-24 9-26 11-20 9-19 10-21 12-21 13-17 12-19 14-13 11-11 9-16 15-27 27-9 11-9 10-6 8-10 13-10 14-10 15-10 16-6 11-10 18-11 23-7 17-3 13v17l4 16 8 16 9 10 7 6 22 12 31 16 22 12 32 16 11 3h20l10-3 12-6 10-8 7-8 12-19 11-18 8-12 16-22 11-13 6-7v-2h2l7-8 6-7 7-6 12-12 11-9 15-12 20-14 22-13 15-8 23-10 17-6 20-6 25-5 22-3 31-1 21 1 24 3 27 6 23 7 20 8 21 10 20 12 17 12 16 13 15 14 12 13 13 17 10 15 10 18 9 19 8 22 7 28 3 19 2 22v34l-3 28-5 25-7 24-9 24-12 25-11 20-12 18-12 17-10 13-10 12-9 11-8 8-7 8-5 5v2l-4 2v2l-4 2-22 22-3 2v2l-4 2-14 13-8 7-14 12-11 9-13 11-14 11-17 14-14 11-11 9-14 11-17 14-11 9-11 10-8 7-20 20-7 8-12 14-12 16-10 14-13 21-9 16-13 28-9 24-7 22-7 28-5 28-3 23-2 32v37l3 13 5 10 9 10 11 7 10 3 155 1 11-4 9-6 8-8 7-14 3-14 5-32 6-27 12-36 12-26 12-22 18-27 14-18 13-15 9-10 12-13 9-9 8-7 13-12 8-7 28-24 14-11 13-11 10-8 13-11 14-11 10-9 8-6v-2l4-2 10-9 12-11 13-12 29-29 7-8 12-13 9-11 14-17 14-19 7-10 10-15 13-21 17-32 9-20 5-12 6-15 10-30 8-32 6-35 3-29 1-20v-31l-2-32-3-27-5-30-6-28-8-29-12-36-12-29-14-29-10-18-13-21-11-16-16-21-12-14-10-11-7-8-14-14-8-7-15-13-17-13-14-10-15-10-20-12-26-14-31-14-24-9-24-8-38-10-37-7-30-4-22-2-19-1z"/>
<path transform="translate(933,1592)" d="m0 0h36l20 3 17 5 16 6 21 11 16 11 13 11 16 16 12 16 8 13 10 19 9 25 5 24 2 20v96l-2 21-6 26-7 19-9 19-10 16-10 13-11 12-11 11-13 10-16 10-16 8-15 6-21 6-13 3h-47l-15-4-21-6-17-7-16-9-12-8-16-13-13-13-11-14-11-16-10-19-8-21-5-19-3-18-1-11v-102l3-23 5-20 8-22 12-23 9-13 9-12h2l2-4 17-17 16-12 15-9 16-8 16-6 21-5zm10 67-19 3-15 5-14 7-14 10-13 12-12 16-8 14-6 15-4 15-2 13v103l3 17 5 16 8 17 9 13 11 13 10 9 15 10 15 7 17 5 17 2h11l20-3 15-5 16-8 14-10 13-12 10-13 9-16 6-15 4-15 2-13v-100l-2-15-4-15-6-15-9-16-10-13-11-11-14-10-17-9-15-5-19-3z"/>
<path transform="translate(921,2047)" d="m0 0 3 1z"/>
</svg>
