<?xml version="1.0" encoding="UTF-8"?>
<svg version="1.1" viewBox="0 0 2048 2048" width="512" height="512" xmlns="http://www.w3.org/2000/svg">
<path transform="translate(999,353)" d="m0 0h47l34 3 28 4 33 7 31 9 25 9 28 12 24 12 27 16 18 12 14 10 14 11 14 12 8 7 16 15 10 10 7 8 9 10 9 11 16 21 10 15 12 19 10 18 9 17 11 25 8 21 9 27 8 32 5 26 4 32 2 28v32l-2 29-3 26-4 23-7 30-8 27-9 25-11 26-13 26-16 27-3 6 12 11 11 11 9 11 12 15 10 15 9 15 12 23 10 24 8 24 6 26 4 26 2 28v13l-1 22-4 30-7 30-10 30-9 21 5 14 13 30 12 28 16 37 27 63 8 20 1 8-2 9-5 10-8 7-9 4-4 1h-10l-14-5-27-12-133-57-16-7-7 1-33 13-29 8-20 4-23 3-13 1h-35l-23-2-29-5-23-6-21-7-21-9-16-8-18-10-18-12-18-14-24-22-14-15-9-11-14-19-13-21-12-23-8-19-10-30-6-27-4-29-1-12v-31l2-26-36-12-29-12-18-8-24 10-100 43-100 43-70 30-7 2h-11l-11-4-9-8-6-12-1-8 3-13 18-41 11-26 16-37 36-84 16-37 13-30 15-35-1-7-12-26-11-29-10-32-8-36-5-34-2-22-1-20v-22l1-23 4-36 5-28 6-25 7-24 10-29 13-30 10-19 9-17 12-19 10-15 14-19 6-8h2l2-4 12-14 12-13 13-13 8-7 11-10 11-9 18-14 16-11 19-12 21-12 28-14 27-11 36-12 23-6 31-6 29-4zm9 63-29 2-23 3-34 7-27 8-25 9-27 12-23 12-21 13-12 8-16 12-11 9-13 11-7 6v2h-2v2l-4 2-8 8v2h-2l-7 8-9 10-11 14-9 12-16 24-13 23-11 22-12 29-9 28-7 28-4 20-4 32-1 18v36l2 26 4 28 5 24 6 22 9 27 11 26 8 17 7 14 2 8-1 10-6 16-15 35-13 30-9 21-11 26-13 30-19 44-15 35v2l6-2 53-23 163-70 15-6 5-1h9l14 5 17 9 23 10 27 10 28 8 29 6 30 4 27 2h25l29-2 30-4 29-6 28-8 22-8 24-10 28-14 25-15 20-14 14-11 13-11 12-11 22-22 9-11 7-8 15-20 10-15 14-24 11-21 11-26 9-25 8-29 5-24 3-19 2-19 1-16v-40l-3-33-5-30-6-25-9-29-8-21-9-20-10-20-13-22-10-15-11-15-13-16-18-20-18-18-8-7-11-9-14-11-20-14-25-15-27-14-29-12-30-10-28-7-22-4-23-3-32-2zm374 724-2 4h-2l-9 11-7 7v2h-2v2h-2v2l-4 2-10 10-8 7-11 9-15 12-17 12-17 11-17 10-18 10-25 12-28 11-27 9-26 7-36 7-31 4-28 2h-36l-31-2-19-2-1 8v38l4 31 6 24 9 25 12 25 12 19 12 16 12 14 16 16 8 7 20 15 13 8 18 10 21 9 21 7 22 5 26 4 13 1h22l27-3 17-3 23-6 28-11 21-10 7-2 11 1 16 6 32 14 77 33 6 2-3-9-45-105-6-15-1-3v-12l6-15 9-19 6-16 6-21 4-20 2-15 1-13v-26l-3-29-6-27-9-27-9-20-11-20-10-15-11-14-9-10-4-5h-2v-2h-2v-2h-2v-2z"/>
<path transform="translate(1799,22)" d="m0 0h30l20 3 16 5 17 7 16 9 12 9 10 8v2l4 2 9 10 11 15 8 14 8 18 6 21 2 14v34l-3 17-4 14-7 18-9 16-10 14-3 4h-2l-2 4-9 9h-2v4l16 10 12 9 13 11 16 16 11 14 10 15 9 16 8 18 7 21 5 24 2 17v20l-4 11-8 9-13 8-18 10-29 14-26 10-26 8-27 6-28 4-28 2h-12l-28-2-27-4-30-7-33-11-30-13-20-10-22-13-9-8-5-10-1-4v-21l3-22 6-25 8-21 8-16 6-11 8-12 10-13 11-12 12-12 14-11 13-9 10-6-2-4-7-7v-2h-2l-9-11-9-13-8-14-7-17-5-19-2-12-1-12v-11l2-19 4-18 7-20 10-19 8-11 9-11 9-10 11-9 14-10 21-11 18-6 13-3zm1 64-16 4-14 6-13 9-6 5v2h-2l-9 11-7 11-6 15-3 12-1 9v14l3 16 4 12 8 15 11 13 10 9 15 9 16 6 18 3h13l16-3 12-4 17-9 11-9 7-7 9-13 7-15 4-15 1-9v-15l-3-16-6-16-7-12-9-11-10-9-14-9-12-5-16-4zm-4 245-20 4-21 7-19 10-11 8-13 11-11 11-13 18-11 21-7 21-3 14v5l5 3 17 9 32 13 27 8 24 5 31 3h22l23-2 23-4 27-7 27-10 24-11 11-6 1-1-1-11-7-24-7-16-11-18-9-11-8-9-8-7-12-9-15-9-18-8-17-5-17-3z"/>
<path transform="translate(219,22)" d="m0 0h30l19 3 20 6 18 8 16 10 10 8 10 9 10 10 13 18 9 16 8 21 5 21 1 8v31l-3 18-5 18-8 19-10 16-9 12-12 13-5 4-1 2 5 2 14 9 16 12 15 14 7 7 9 11 12 17 9 16 7 14 7 19 5 18 3 16 2 18v17l-4 11-4 6-8 7-29 16-25 12-23 9-24 8-24 6-29 5-19 2-17 1h-14l-27-2-27-4-26-6-26-8-28-11-29-14-25-14-10-9-5-10-1-4v-23l3-21 5-21 6-18 13-27 12-18 9-12 11-12 14-14 14-11 15-10 7-4-2-4-11-11-11-14-11-18-6-13-7-21-3-17-1-10v-17l2-18 4-17 7-19 10-19 12-17 15-16 16-13 15-9 19-9 20-6zm1 64-17 4-16 8-11 8-10 9-9 12-8 16-5 17-1 7v20l4 17 5 13 9 14 11 12 10 8 14 8 14 5 17 3h13l17-3 14-5 13-7 14-11 9-10 9-15 5-13 3-13 1-18-3-19-6-16-8-14-11-13-14-11-16-8-13-4-6-1zm-4 245-21 4-20 7-16 8-12 8-13 11-14 14-11 15-9 16-8 20-5 20v7l8 5 25 12 27 10 21 6 24 5 16 2 15 1h22l23-2 23-4 27-7 27-10 18-8 17-9 1-5-6-25-8-19-9-16-8-11-9-10-11-11-17-12-16-9-21-8-18-4-8-1z"/>
<path transform="translate(1803,1482)" d="m0 0h22l16 2 21 5 19 8 15 8 11 8 11 9 14 14 12 16 10 18 6 15 4 12 4 22v35l-5 25-8 21-8 15-8 12-11 13-12 12 4 3 14 9 12 9 10 9 8 7 7 7 9 11 13 18 9 15 10 22 7 21 5 24 2 17v20l-4 11-5 7-10 7-29 16-21 10-23 9-24 8-28 7-31 5-25 2h-27l-31-3-32-6-28-8-22-8-23-10-28-14-17-10-10-9-5-10-1-4v-20l3-23 5-21 7-20 6-13 7-14 12-18 10-13 12-13 7-7 11-9 13-10 15-9 2-2-14-14-11-14-8-13-8-16-6-16-5-24-1-13v-10l2-20 5-21 6-16 8-16 10-15 11-13 12-12 13-10 20-12 20-8 20-5zm0 64-15 3-13 5-11 6-11 9-9 9-9 13-7 15-4 15-1 9v15l3 15 4 12 6 12 9 12 11 11 14 9 10 5 13 4 11 2h20l15-3 13-5 16-9 12-11 8-9 8-13 6-16 2-9 1-9v-15l-3-15-4-12-9-17-12-14-13-10-16-8-16-5-6-1zm-4 245-18 3-20 6-21 10-12 8-11 9-10 9-9 10-9 13-9 16-8 20-5 21v6l21 11 32 13 26 8 24 5 26 3h37l24-3 20-4 19-5 20-7 23-10 20-10 2-2-1-10-5-19-6-15-9-17-10-14-9-10-10-10-18-13-19-10-19-7-19-4-8-1z"/>
<path transform="translate(223,1482)" d="m0 0h22l22 3 20 6 18 8 14 8 13 10 12 11 11 12 11 16 8 14 8 21 4 16 2 14v31l-3 18-6 20-4 9-8 16-12 17-11 12-8 8 5 4 11 7 14 10 12 11 8 7 10 11 10 13 11 17 11 21 8 21 6 23 3 20 1 11v14l-3 11-6 8-7 6-21 12-17 9-32 14-30 10-28 7-23 4-18 2-15 1h-27l-31-3-32-6-28-8-25-9-27-12-23-12-15-9-10-9-5-9-1-4v-23l4-27 5-19 7-19 8-17 12-20 10-13 6-8h2l2-4 15-15 14-11 14-10 10-6-2-4-13-13-12-16-9-16-8-18-5-18-3-22v-18l2-17 5-21 6-16 10-19 8-11 9-11 5-6h2v-2l11-9 12-9 15-9 19-8 18-5zm0 64-15 3-13 5-11 6-10 8-12 12-10 16-6 16-3 15v20l3 14 5 14 7 12 7 9 3 4h2v2l13 10 12 7 14 5 15 3h20l18-4 16-7 12-8 10-9 8-9 8-14 5-13 3-12 1-19-2-14-5-16-8-16-8-10-10-10-10-7-16-8-14-4-6-1zm-4 245-18 3-15 4-19 8-15 9-12 9-13 12-10 11-9 13-8 14-8 20-5 21v7l19 10 26 11 17 6 21 6 19 4 26 3h38l24-3 24-5 24-7 25-10 25-12 6-4-1-9-5-19-8-20-9-16-10-13-9-10-12-11-16-11-17-9-16-6-22-5-9-1z"/>
<path transform="translate(870,668)" d="m0 0h305l10 2 9 5 6 7 5 10 1 8-2 11-6 10-8 7-9 3-11 1h-299l-10-2-10-6-7-9-3-8v-14l4-10 7-8 11-6z"/>
<path transform="translate(866,797)" d="m0 0h313l11 4 10 9 5 11v15l-3 8-6 8-7 5-11 3h-312l-8-3-6-4-7-8-4-9v-14l4-10 8-9 9-5z"/>
<path transform="translate(873,925)" d="m0 0h85l18 1 10 4 8 7 5 9 2 6v11l-4 10-6 8-9 6-9 2h-107l-10-4-8-7-6-10-2-12 3-11 5-8 9-8 8-3z"/>
</svg>
