<?xml version="1.0" encoding="UTF-8"?>
<svg version="1.1" viewBox="0 0 2048 2048" width="512" height="512" xmlns="http://www.w3.org/2000/svg">
<path transform="translate(1352,1123)" d="m0 0h466l27 2 24 4 24 7 24 10 17 9 15 10 13 10 14 12 12 12 9 11 10 13 12 19 11 22 8 22 6 23 2 10h2v530l-2 2-4 20-7 24-9 21-10 19-7 11-9 12-9 11-15 16-8 7-15 12-15 10-16 9-20 9-24 8-25 6-9 2h-515l-39-9-23-8-25-12-20-13-13-10-13-12-6-5-7-8-9-10-13-18-9-15-12-25-7-20-6-24-3-22-1-14v-476l2-22 4-22 5-18 8-21 8-17 12-20 12-16 12-14 16-16 14-11 14-10 19-11 21-10 21-7 22-5 22-3zm2 65-17 1-19 3-17 5-19 8-16 9-11 8-11 9-15 15-10 13-11 18-8 17-6 18-4 20-1 9-1 23v452l2 25 4 19 6 18 10 21 7 11 9 12 11 12 9 9 13 10 18 11 15 7 21 7 14 3 18 2h484l21-3 19-5 17-7 19-10 14-10 14-12 7-7 11-14 7-10 10-18 8-21 5-21 2-17v-485l-3-21-5-19-8-20-8-15-9-13-8-10-12-12-10-9-16-11-14-8-20-8-18-5-20-3-25-1z"/>
<path transform="translate(1326)" d="m0 0h518l28 6 21 6 18 7 19 10 18 11 14 11 14 12 12 12 9 11 10 13 12 19 11 22 8 22 6 23 2 10h2v530l-2 2-4 20-7 24-9 21-10 19-7 11-9 12-9 11-15 16-8 7-15 12-15 10-16 9-17 8-27 9-23 5-25 3h-488l-20-2-25-5-16-5-16-6-21-10-21-13-14-11-13-12-6-5-7-8-9-10-13-18-9-15-12-25-7-20-6-24-3-22-1-14v-476l2-22 4-22 5-18 8-21 8-17 12-20 12-16 12-14 16-16 14-11 14-10 19-11 19-9 27-9 22-5zm28 64-17 1-19 3-17 5-21 9-17 10-13 10-10 9-12 12-11 15-9 15-8 17-6 18-4 20-1 9-1 22v453l2 25 4 19 6 18 10 21 7 11 9 12 11 12 9 9 16 12 15 9 15 7 21 7 14 3 18 2h484l21-3 19-5 17-7 19-10 14-10 14-12 7-7 11-14 7-10 10-18 8-21 5-21 2-17v-486l-3-20-5-19-8-20-8-15-9-13-8-10-12-12-10-9-16-11-14-8-20-8-13-4-15-3-10-1-22-1z"/>
<path transform="translate(228,1123)" d="m0 0h466l27 2 24 4 24 7 24 10 17 9 15 10 13 10 14 12 12 12 9 11 10 13 7 11 8 14 10 21 9 27 5 24 2 18 1 33v83l-1 380-2 17-4 20-6 21-6 15-10 21-7 11-4 7-9 12-9 11-15 16-8 7-15 12-15 10-16 9-20 9-24 8-26 6-8 2h-515l-39-9-23-8-25-12-20-13-13-10-13-12-5-4-7-8-10-11-13-18-9-15-8-16-8-20-5-16-5-23-2-9v-518l3-13 6-24 6-18 9-20 6-11 11-17 9-12 12-14 16-16 14-11 14-10 19-11 21-10 21-7 22-5 22-3zm3 65-18 1-19 3-17 5-19 8-16 9-11 8-11 9-16 16-11 15-9 15-8 17-6 18-4 20-1 10-1 25v448l2 25 3 17 7 21 10 21 7 11 9 12 11 12 9 9 13 10 18 11 15 7 21 7 15 3 18 2h483l21-3 19-5 17-7 19-10 14-10 14-12 7-7 11-14 7-10 10-18 8-21 5-21 2-17v-485l-3-21-5-19-8-20-8-15-9-13-8-10-12-12-10-9-16-11-14-8-20-8-18-5-20-3-25-1z"/>
<path transform="translate(202)" d="m0 0h518l28 6 21 6 18 7 19 10 18 11 14 11 14 12 12 12 9 11 10 13 13 21 12 25 9 27 5 24 2 18 1 34v72l-1 391-3 22-6 26-8 22-12 25-8 13-11 15-9 11-14 15-10 9-17 13-14 9-14 8-17 8-27 9-23 5-25 3h-488l-20-2-25-5-16-5-16-6-21-10-21-13-14-11-13-12-5-4-7-8-10-11-13-18-9-15-8-16-8-20-5-16-6-27-1-5v-518l3-13 6-24 6-18 9-20 6-11 11-17 9-12 12-14 16-16 14-11 14-10 19-11 19-9 27-9 22-5zm28 64-17 1-19 3-17 5-21 9-17 10-13 10-10 9-12 12-11 15-9 15-8 17-6 18-4 20-1 10-1 25v447l2 26 3 17 7 21 10 21 7 11 9 12 11 12 9 9 16 12 15 9 15 7 21 7 14 3 18 2h484l21-3 19-5 17-7 19-10 14-10 15-13 12-13 12-17 10-18 8-21 5-21 2-17v-485l-3-21-5-19-8-20-8-15-9-13-8-10-12-12-10-9-16-11-14-8-20-8-13-4-15-3-31-2z"/>
<path transform="translate(256,1387)" d="m0 0h412l17 3 13 5 10 6 10 8 8 8 9 14 5 11 3 11 1 6v254l-4 17-8 16-9 12-7 7-15 10-12 5-10 3-23 2h-384l-21-1-15-3-17-8-14-11-9-10-8-13-5-11-3-14-1-12v-234l2-17 5-15 7-12 7-9 5-5 9-8 11-7 17-6zm64 65 4 4 16 10 43 29 35 23 33 22 10 7 4-2 42-28 44-29 36-24 14-9 2-3zm-76 29v195l4-1 22-22 8-7 17-16 12-11 7-7 8-7 9-9 8-7 11-11 8-7 9-8v-2l-11-7-93-62-17-11zm433 0-43 29-44 29-33 22 2 4 13 12 6 6h2v2l8 7 81 76 3 3h2l2 4 3 1v-195zm-255 118-12 12-8 7-9 9-8 7-9 9-8 7-17 16-33 31-12 11-11 10 2 2h327l4-1v-2l-8-7-10-10-8-7-8-8-8-7-33-31-7-7-8-7-9-9-8-7-16-15-5-3-15 10-10 6-10 3-11-1-14-7-14-10z"/>
<path transform="translate(1574,178)" d="m0 0h23l16 2 18 4 19 7 19 10 14 10 13 11 9 9 11 14 8 13 8 15 6 17 4 15 2 13 1 13-1 26-4 20-7 21-8 16-10 16-9 11-4 5h-2l-1 3h-2v4l23 11 23 14 16 12 11 9 13 12 14 14 9 11 10 13 10 15 12 21 10 22 8 22 7 27 4 25 1 11v29l-6 12-7 7-8 4-12 2h-500l-11-2-8-5-7-7-4-8-2-10 1-26 4-28 5-21 6-19 7-18 12-25 11-18 7-10 9-12 12-14 3-4h2v-2h2v-2h2l2-4 12-11 11-9 19-14 24-14 16-8 5-2-2-4-3-3v-2l-3-1-13-17-9-15-7-15-7-21-3-16-1-9v-26l3-20 4-15 6-16 11-21 11-15 9-10 12-12 15-11 15-9 18-8 21-6zm2 65-16 3-16 6-14 9-12 11-9 10-9 16-5 15-3 16v17l3 16 6 16 8 13 8 10 8 8 13 9 15 7 13 4 15 2h9l16-2 18-6 11-6 11-8 10-9 10-13 9-19 4-17 1-9v-10l-3-19-5-14-6-12-9-12-11-11-10-7-16-8-13-4-11-2zm-8 253-28 4-22 6-25 10-17 9-18 12-16 13-9 8v2l-4 2-7 8-13 16-7 11-10 17-8 18-6 17-7 28v3l14 1h415v-7l-5-21-7-21-12-25-11-18-11-14-12-14-14-13-14-11-17-11-12-7-23-10-19-6-23-5-17-2z"/>
<path transform="translate(1569,1289)" d="m0 0h32l22 2 23 4 23 6 25 9 25 12 19 11 17 12 16 13 13 12 12 12 9 11 13 17 11 17 7 12 10 21 9 24 6 22 5 25 2 19v44l-2 18-5 25-5 19-7 20-9 20-9 17-10 16-13 18-9 10-7 8-6 7-8 7-11 10-13 10-13 9-15 9-23 12-25 10-24 7-32 6-19 2h-36l-31-4-23-5-9-2-137 37-14 3-10-1-12-6-7-8-4-8-1-3v-13l10-39 20-74-1-6-12-21-12-25-9-25-6-24-4-24-2-24v-21l2-24 4-24 6-23 6-18 10-23 11-21 12-18 8-11 9-11 11-12 18-18 14-11 18-13 24-14 19-9 24-9 23-6 20-4zm8 65-23 2-24 5-16 5-20 8-19 10-15 10-14 11-13 12-9 9-9 11-11 15-10 17-10 21-8 24-4 16-3 25-1 23 2 22 4 22 6 21 6 15 8 17 11 18 9 14 3 8v12l-9 35-10 37-1 5 17-4 82-22 5-1h10l31 8 19 3 11 1h27l18-2 20-4 21-6 21-9 21-11 16-11 13-11 10-9 9-9 9-11 11-15 10-17 10-21 7-21 5-20 3-24v-33l-3-23-6-25-8-21-10-21-12-19-10-13-12-13-12-12-14-11-13-9-19-11-18-8-24-8-25-5-7-1-17-1z"/>
<path transform="translate(316,179)" d="m0 0 18 2 12 5 11 7 8 8 7 11 5 11 27 72 14 38 2 9v17l-5 16-8 14-11 17-7 11 2 5 11 16 13 17 9 10 7 8 25 25 11 9 12 10 17 12 7 5h6l11-8 16-10 14-8 9-3 5-1h19l14 4 30 11 40 15 39 15 13 7 12 11 7 11 5 13 1 4v22l-5 15-8 14-11 17-9 14-13 20-8 11-14 14-14 9-12 6-21 6-7 1h-23l-20-4-31-9-29-10-26-11-29-14-19-10-26-16-16-11-19-14-16-13-14-12-13-12-34-34-7-8-11-13-13-17-12-16-17-26-11-19-13-24-10-22-6-13-11-29-10-33-6-26-1-10v-10l2-16 5-17 8-16 8-11 9-10 12-10 25-16 17-11 19-12 14-7 8-2zm-2 68-33 21-14 9-12 9-6 8-4 11v15l6 24 12 36 11 26 12 25 10 18 16 26 11 15 9 12 13 16 10 11 7 8 32 32 11 9 15 13 18 13 16 11 23 14 28 15 20 9 20 8 25 9 34 9h14l13-5 10-9 16-24 20-32-1-2-96-36-2-1h-6l-15 10-19 12-12 6-13 3h-15l-15-4-16-9-20-14-14-11-13-11-11-9-28-28-7-8-11-13-10-13-13-18-10-16-5-11-2-9v-18l3-12 7-14 12-18 9-14-1-7-14-37-16-43-6-16z"/>
<path transform="translate(1714,1528)" d="m0 0h17l10 4 8 6 7 8 4 10 1 5v10l-4 13-7 9-7 6-9 4-5 1h-14l-11-4-6-4-7-7-6-12-1-4v-13l3-10 6-10 10-8z"/>
<path transform="translate(1441,1528)" d="m0 0h17l10 4 8 6 6 7 4 8 2 7v12l-4 12-6 8-8 7-10 4-4 1h-14l-10-3-8-6-7-8-4-8-2-7v-12l3-10 7-11 11-8z"/>
<path transform="translate(1578,1528)" d="m0 0h16l11 4 9 7 6 8 4 11v17l-5 11-7 9-7 5-13 4h-14l-11-4-9-7-7-10-3-8-1-10 3-14 6-10 9-8 8-4z"/>
<path transform="translate(1322,2047)" d="m0 0 4 1z"/>
<path transform="translate(198,2047)" d="m0 0 4 1z"/>
<path transform="translate(1849)" d="m0 0"/>
<path transform="translate(725)" d="m0 0"/>
</svg>
